<svg xmlns="http://www.w3.org/2000/svg" width="43" height="48" viewBox="0 0 43 48" fill="none"><path d="M21.7085 17.9844H6.28462C5.81145 17.9844 5.42773 18.3692 5.42773 18.8438V24C5.42773 24.4745 5.81145 24.8594 6.28462 24.8594H21.7085C22.1817 24.8594 22.5654 24.4745 22.5654 24V18.8438C22.5654 18.3692 22.1818 17.9844 21.7085 17.9844ZM20.8516 23.1406H7.1415V19.7031H20.8516V23.1406Z" fill="#C0A88C"></path><path d="M9.71225 30.0156H7.99849C7.52531 30.0156 7.1416 30.4005 7.1416 30.875C7.1416 31.3495 7.52531 31.7344 7.99849 31.7344H9.71225C10.1854 31.7344 10.5691 31.3495 10.5691 30.875C10.5691 30.4005 10.1855 30.0156 9.71225 30.0156Z" fill="#C0A88C"></path><path d="M9.71225 33.4531H7.99849C7.52531 33.4531 7.1416 33.838 7.1416 34.3125C7.1416 34.787 7.52531 35.1719 7.99849 35.1719H9.71225C10.1854 35.1719 10.5691 34.787 10.5691 34.3125C10.5691 33.838 10.1855 33.4531 9.71225 33.4531Z" fill="#C0A88C"></path><path d="M14.8529 30.0156H13.1391C12.6659 30.0156 12.2822 30.4005 12.2822 30.875C12.2822 31.3495 12.6659 31.7344 13.1391 31.7344H14.8529C15.3261 31.7344 15.7098 31.3495 15.7098 30.875C15.7098 30.4005 15.3261 30.0156 14.8529 30.0156Z" fill="#C0A88C"></path><path d="M14.8529 33.4531H13.1391C12.6659 33.4531 12.2822 33.838 12.2822 34.3125C12.2822 34.787 12.6659 35.1719 13.1391 35.1719H14.8529C15.3261 35.1719 15.7098 34.787 15.7098 34.3125C15.7098 33.838 15.3261 33.4531 14.8529 33.4531Z" fill="#C0A88C"></path><path d="M19.9945 30.0156H18.2807C17.8075 30.0156 17.4238 30.4005 17.4238 30.875C17.4238 31.3495 17.8075 31.7344 18.2807 31.7344H19.9945C20.4677 31.7344 20.8514 31.3495 20.8514 30.875C20.8514 30.4005 20.4677 30.0156 19.9945 30.0156Z" fill="#C0A88C"></path><path d="M19.9945 33.4531H18.2807C17.8075 33.4531 17.4238 33.838 17.4238 34.3125C17.4238 34.787 17.8075 35.1719 18.2807 35.1719H19.9945C20.4677 35.1719 20.8514 34.787 20.8514 34.3125C20.8514 33.838 20.4677 33.4531 19.9945 33.4531Z" fill="#C0A88C"></path><path d="M19.9945 36.8906H18.2807C17.8075 36.8906 17.4238 37.2755 17.4238 37.75C17.4238 38.2245 17.8075 38.6094 18.2807 38.6094H19.9945C20.4677 38.6094 20.8514 38.2245 20.8514 37.75C20.8514 37.2755 20.4677 36.8906 19.9945 36.8906Z" fill="#C0A88C"></path><path d="M19.9945 40.3281H18.2807C17.8075 40.3281 17.4238 40.713 17.4238 41.1875C17.4238 41.662 17.8075 42.0469 18.2807 42.0469H19.9945C20.4677 42.0469 20.8514 41.662 20.8514 41.1875C20.8514 40.713 20.4677 40.3281 19.9945 40.3281Z" fill="#C0A88C"></path><path d="M14.8529 36.8906H13.1391C12.6659 36.8906 12.2822 37.2755 12.2822 37.75C12.2822 38.2245 12.6659 38.6094 13.1391 38.6094H14.8529C15.3261 38.6094 15.7098 38.2245 15.7098 37.75C15.7098 37.2755 15.3261 36.8906 14.8529 36.8906Z" fill="#C0A88C"></path><path d="M14.8529 40.3281H13.1391C12.6659 40.3281 12.2822 40.713 12.2822 41.1875C12.2822 41.662 12.6659 42.0469 13.1391 42.0469H14.8529C15.3261 42.0469 15.7098 41.662 15.7098 41.1875C15.7098 40.713 15.3261 40.3281 14.8529 40.3281Z" fill="#C0A88C"></path><path d="M9.71225 36.8906H7.99849C7.52531 36.8906 7.1416 37.2755 7.1416 37.75C7.1416 38.2245 7.52531 38.6094 7.99849 38.6094H9.71225C10.1854 38.6094 10.5691 38.2245 10.5691 37.75C10.5691 37.2755 10.1855 36.8906 9.71225 36.8906Z" fill="#C0A88C"></path><path d="M9.71225 40.3281H7.99849C7.52531 40.3281 7.1416 40.713 7.1416 41.1875C7.1416 41.662 7.52531 42.0469 7.99849 42.0469H9.71225C10.1854 42.0469 10.5691 41.662 10.5691 41.1875C10.5691 40.713 10.1855 40.3281 9.71225 40.3281Z" fill="#C0A88C"></path><path d="M22.1836 3.86313L19.613 2.14438C19.3252 1.95188 18.9503 1.95188 18.6624 2.14438L16.567 3.54533L14.4717 2.14438C14.1839 1.95188 13.809 1.95188 13.5211 2.14438L11.4257 3.54533L9.33039 2.14438C9.04256 1.95188 8.66767 1.95188 8.37976 2.14438L5.80911 3.86313C5.57072 4.02254 5.42754 4.29084 5.42754 4.57812V11.1094H4.57065C3.15319 11.1094 2 12.2659 2 13.6875V23.7938C2 25.2056 2.31876 26.5609 2.94737 27.8218C3.45585 28.842 3.71377 29.9386 3.71377 31.0813V43.4219C3.71377 44.8435 4.86696 46 6.28442 46H21.7083C23.1258 46 24.279 44.8435 24.279 43.4219V33.4531H38.846C40.2635 33.4531 41.4167 32.2966 41.4167 30.875V18.8438C41.4167 17.4222 40.2635 16.2656 38.846 16.2656H25.9928V13.6875C25.9928 12.2659 24.8396 11.1094 23.4221 11.1094H22.5652V4.57812C22.5652 4.29084 22.422 4.02254 22.1836 3.86313ZM7.1413 5.03806L8.85507 3.89226L10.9504 5.29321C11.2382 5.48571 11.6131 5.48571 11.901 5.29321L13.9964 3.89226L16.0917 5.29321C16.3795 5.48571 16.7544 5.48571 17.0423 5.29321L19.1377 3.89226L20.8514 5.03806V14.5469H7.1413V5.03806ZM38.846 31.7344H24.279V31.0812C24.279 29.9384 24.5368 28.8417 25.0454 27.8218C25.5141 26.8816 25.8103 25.8889 25.9308 24.8593H39.7029V30.8749C39.7029 31.3489 39.3185 31.7344 38.846 31.7344ZM38.846 17.9844C39.3185 17.9844 39.7029 18.3699 39.7029 18.8438V21.4219H25.9928V17.9844H38.846ZM23.4221 12.8281C23.8946 12.8281 24.279 13.2136 24.279 13.6875V23.7938C24.279 24.9366 24.0212 26.0333 23.5126 27.0532C22.884 28.3139 22.5652 29.6691 22.5652 31.0813V43.4219C22.5652 43.8957 22.1808 44.2812 21.7083 44.2812H6.28442C5.81193 44.2812 5.42754 43.8957 5.42754 43.4219V31.0812C5.42754 29.6694 5.10878 28.3141 4.48017 27.0532C3.97169 26.0331 3.71377 24.9365 3.71377 23.7938V13.6875C3.71377 13.2136 4.09817 12.8281 4.57065 12.8281H5.42754V15.4062C5.42754 15.8808 5.81125 16.2656 6.28442 16.2656H21.7083C22.1815 16.2656 22.5652 15.8808 22.5652 15.4062V12.8281H23.4221Z" fill="#C0A88C"></path><path d="M18.2802 9.39062H9.71138C9.2382 9.39062 8.85449 9.77545 8.85449 10.25C8.85449 10.7245 9.2382 11.1094 9.71138 11.1094H18.2802C18.7534 11.1094 19.1371 10.7245 19.1371 10.25C19.1371 9.77545 18.7535 9.39062 18.2802 9.39062Z" fill="#C0A88C"></path><path d="M37.1321 28.2969H33.7045C33.2314 28.2969 32.8477 28.6817 32.8477 29.1562C32.8477 29.6308 33.2314 30.0156 33.7045 30.0156H37.1321C37.6052 30.0156 37.989 29.6308 37.989 29.1562C37.989 28.6817 37.6053 28.2969 37.1321 28.2969Z" fill="#C0A88C"></path></svg>