<svg xmlns="http://www.w3.org/2000/svg" width="18" height="19" viewBox="0 0 18 19" fill="none"><path d="M1.6875 2.4082C0.755859 2.4082 0 3.16406 0 4.0957C0 4.62656 0.249609 5.12578 0.675 5.4457L8.325 11.1832C8.72578 11.482 9.27422 11.482 9.675 11.1832L17.325 5.4457C17.7504 5.12578 18 4.62656 18 4.0957C18 3.16406 17.2441 2.4082 16.3125 2.4082H1.6875ZM0 6.3457V13.6582C0 14.8992 1.00898 15.9082 2.25 15.9082H15.75C16.991 15.9082 18 14.8992 18 13.6582V6.3457L10.35 12.0832C9.54844 12.6844 8.45156 12.6844 7.65 12.0832L0 6.3457Z" fill="white"></path></svg>