<svg xmlns="http://www.w3.org/2000/svg" width="43" height="43" viewBox="0 0 43 43" fill="none"><path d="M18.4212 22.2699H19.9609C20.3861 22.2699 20.7308 21.9252 20.7308 21.5001C20.7308 21.075 20.3861 20.7302 19.9609 20.7302H18.4212C17.9961 20.7302 17.6514 21.075 17.6514 21.5001C17.6514 21.9252 17.9961 22.2699 18.4212 22.2699Z" fill="#C0A88C"></path><path d="M18.4212 25.3493H19.9609C20.3861 25.3493 20.7308 25.0045 20.7308 24.5794C20.7308 24.1543 20.3861 23.8096 19.9609 23.8096H18.4212C17.9961 23.8096 17.6514 24.1543 17.6514 24.5794C17.6514 25.0045 17.9961 25.3493 18.4212 25.3493Z" fill="#C0A88C"></path><path d="M23.0404 22.2699H24.5801C25.0052 22.2699 25.3499 21.9252 25.3499 21.5001C25.3499 21.075 25.0052 20.7302 24.5801 20.7302H23.0404C22.6152 20.7302 22.2705 21.075 22.2705 21.5001C22.2705 21.9252 22.6152 22.2699 23.0404 22.2699Z" fill="#C0A88C"></path><path d="M23.0404 25.3493H24.5801C25.0052 25.3493 25.3499 25.0045 25.3499 24.5794C25.3499 24.1543 25.0052 23.8096 24.5801 23.8096H23.0404C22.6152 23.8096 22.2705 24.1543 22.2705 24.5794C22.2705 25.0045 22.6152 25.3493 23.0404 25.3493Z" fill="#C0A88C"></path><path d="M23.0404 28.4289H24.5801C25.0052 28.4289 25.3499 28.0841 25.3499 27.659C25.3499 27.2339 25.0052 26.8892 24.5801 26.8892H23.0404C22.6152 26.8892 22.2705 27.2339 22.2705 27.659C22.2705 28.0841 22.6152 28.4289 23.0404 28.4289Z" fill="#C0A88C"></path><path d="M23.0404 31.5082H24.5801C25.0052 31.5082 25.3499 31.1635 25.3499 30.7384C25.3499 30.3132 25.0052 29.9685 24.5801 29.9685H23.0404C22.6152 29.9685 22.2705 30.3132 22.2705 30.7384C22.2705 31.1635 22.6152 31.5082 23.0404 31.5082Z" fill="#C0A88C"></path><path d="M18.4212 28.4289H19.9609C20.3861 28.4289 20.7308 28.0841 20.7308 27.659C20.7308 27.2339 20.3861 26.8892 19.9609 26.8892H18.4212C17.9961 26.8892 17.6514 27.2339 17.6514 27.659C17.6514 28.0841 17.9961 28.4289 18.4212 28.4289Z" fill="#C0A88C"></path><path d="M18.4212 31.5082H19.9609C20.3861 31.5082 20.7308 31.1635 20.7308 30.7384C20.7308 30.3132 20.3861 29.9685 19.9609 29.9685H18.4212C17.9961 29.9685 17.6514 30.3132 17.6514 30.7384C17.6514 31.1635 17.9961 31.5082 18.4212 31.5082Z" fill="#C0A88C"></path><path d="M18.4212 16.111H19.9609C20.3861 16.111 20.7308 15.7663 20.7308 15.3411C20.7308 14.916 20.3861 14.5713 19.9609 14.5713H18.4212C17.9961 14.5713 17.6514 14.916 17.6514 15.3411C17.6514 15.7663 17.9961 16.111 18.4212 16.111Z" fill="#C0A88C"></path><path d="M18.4212 19.1906H19.9609C20.3861 19.1906 20.7308 18.8459 20.7308 18.4207C20.7308 17.9956 20.3861 17.6509 19.9609 17.6509H18.4212C17.9961 17.6509 17.6514 17.9956 17.6514 18.4207C17.6514 18.8459 17.9961 19.1906 18.4212 19.1906Z" fill="#C0A88C"></path><path d="M23.0404 16.111H24.5801C25.0052 16.111 25.3499 15.7663 25.3499 15.3411C25.3499 14.916 25.0052 14.5713 24.5801 14.5713H23.0404C22.6152 14.5713 22.2705 14.916 22.2705 15.3411C22.2705 15.7663 22.6152 16.111 23.0404 16.111Z" fill="#C0A88C"></path><path d="M23.0404 19.1906H24.5801C25.0052 19.1906 25.3499 18.8459 25.3499 18.4207C25.3499 17.9956 25.0052 17.6509 24.5801 17.6509H23.0404C22.6152 17.6509 22.2705 17.9956 22.2705 18.4207C22.2705 18.8459 22.6152 19.1906 23.0404 19.1906Z" fill="#C0A88C"></path><path d="M7.41243 22.2699H8.95215C9.37726 22.2699 9.72201 21.9252 9.72201 21.5001C9.72201 21.075 9.37726 20.7302 8.95215 20.7302H7.41243C6.98732 20.7302 6.64258 21.075 6.64258 21.5001C6.64258 21.9252 6.98732 22.2699 7.41243 22.2699Z" fill="#C0A88C"></path><path d="M7.41243 25.3493H8.95215C9.37726 25.3493 9.72201 25.0045 9.72201 24.5794C9.72201 24.1543 9.37726 23.8096 8.95215 23.8096H7.41243C6.98732 23.8096 6.64258 24.1543 6.64258 24.5794C6.64258 25.0045 6.98732 25.3493 7.41243 25.3493Z" fill="#C0A88C"></path><path d="M7.41243 28.4289H8.95215C9.37726 28.4289 9.72201 28.0841 9.72201 27.659C9.72201 27.2339 9.37726 26.8892 8.95215 26.8892H7.41243C6.98732 26.8892 6.64258 27.2339 6.64258 27.659C6.64258 28.0841 6.98732 28.4289 7.41243 28.4289Z" fill="#C0A88C"></path><path d="M7.41243 31.5082H8.95215C9.37726 31.5082 9.72201 31.1635 9.72201 30.7384C9.72201 30.3132 9.37726 29.9685 8.95215 29.9685H7.41243C6.98732 29.9685 6.64258 30.3132 6.64258 30.7384C6.64258 31.1635 6.98732 31.5082 7.41243 31.5082Z" fill="#C0A88C"></path><path d="M40.4388 16.1111H29.9687V10.2602C29.9687 9.83506 29.624 9.49032 29.1989 9.49032H26.8893V7.9506H29.1989C29.624 7.9506 29.9687 7.60586 29.9687 7.18075V2.5616C29.9687 2.13649 29.624 1.79175 29.1989 1.79175H13.8018C13.3766 1.79175 13.0319 2.13649 13.0319 2.5616V7.18075C13.0319 7.60586 13.3766 7.9506 13.8018 7.9506H16.1113V9.49032H13.8018C13.3766 9.49032 13.0319 9.83506 13.0319 10.2602V16.1111H2.56185C2.13673 16.1111 1.79199 16.4558 1.79199 16.8809V40.4386C1.79199 40.8637 2.13673 41.2084 2.56185 41.2084H40.4388C40.8639 41.2084 41.2087 40.8637 41.2087 40.4386V16.8809C41.2087 16.4558 40.8639 16.1111 40.4388 16.1111ZM13.0319 39.6687H9.72152V35.3575C9.72152 34.9324 9.37677 34.5876 8.95166 34.5876H7.41195C6.98683 34.5876 6.64209 34.9324 6.64209 35.3575V39.6687H3.33171V17.6508H13.0319V39.6687ZM14.5716 6.41089V3.33146H28.429V6.41089H14.5716ZM25.3496 7.9506V9.49032H17.651V7.9506H25.3496ZM28.429 16.8809V39.6687H25.3496V35.3575C25.3496 34.9324 25.0049 34.5876 24.5798 34.5876H18.4209C17.9958 34.5876 17.651 34.9324 17.651 35.3575V39.6687H14.5716V11.03H28.429V16.8809ZM39.6689 39.6687H36.3586V35.3575C36.3586 34.9324 36.0138 34.5876 35.5887 34.5876H34.049C33.6239 34.5876 33.2791 34.9324 33.2791 35.3575V39.6687H29.9687V17.6508H39.6689V39.6687Z" fill="#C0A88C"></path><path d="M34.0492 22.2699H35.5889C36.014 22.2699 36.3587 21.9252 36.3587 21.5001C36.3587 21.075 36.014 20.7302 35.5889 20.7302H34.0492C33.624 20.7302 33.2793 21.075 33.2793 21.5001C33.2793 21.9252 33.624 22.2699 34.0492 22.2699Z" fill="#C0A88C"></path><path d="M34.0492 25.3493H35.5889C36.014 25.3493 36.3587 25.0045 36.3587 24.5794C36.3587 24.1543 36.014 23.8096 35.5889 23.8096H34.0492C33.624 23.8096 33.2793 24.1543 33.2793 24.5794C33.2793 25.0045 33.624 25.3493 34.0492 25.3493Z" fill="#C0A88C"></path><path d="M34.0492 28.4289H35.5889C36.014 28.4289 36.3587 28.0841 36.3587 27.659C36.3587 27.2339 36.014 26.8892 35.5889 26.8892H34.0492C33.624 26.8892 33.2793 27.2339 33.2793 27.659C33.2793 28.0841 33.624 28.4289 34.0492 28.4289Z" fill="#C0A88C"></path><path d="M34.0492 31.5082H35.5889C36.014 31.5082 36.3587 31.1635 36.3587 30.7384C36.3587 30.3132 36.014 29.9685 35.5889 29.9685H34.0492C33.624 29.9685 33.2793 30.3132 33.2793 30.7384C33.2793 31.1635 33.624 31.5082 34.0492 31.5082Z" fill="#C0A88C"></path></svg>