<svg xmlns="http://www.w3.org/2000/svg" width="49" height="49" viewBox="0 0 49 49" fill="none"><path d="M40.0975 28.0241C40.137 27.5153 40.1577 27.0109 40.1577 26.5176C40.1577 20.3559 37.1584 14.5955 32.1216 11.0488C32.034 10.6372 31.9145 10.2496 31.7521 9.88695C30.9993 8.20516 29.4645 7.31914 26.9181 7.09828C26.9001 7.09656 26.8958 7.09656 26.8872 7.0768C26.8777 7.05531 26.8777 7.0493 26.8898 7.03211L27.8162 5.71984C28.1264 5.27813 28.1634 4.72898 27.915 4.25117C27.6658 3.7725 27.1957 3.48633 26.6577 3.48633H19.9658C17.404 3.48633 14.996 4.30359 13.187 5.78688C11.5061 7.16531 10.4714 9.04734 10.2059 11.1691C5.27133 14.7218 2.33398 20.4349 2.33398 26.5184C2.33398 31.5698 4.30109 36.3196 7.87352 39.892C11.4459 43.4645 16.1957 45.4316 21.2471 45.4316C24.7112 45.4316 28.0783 44.4923 31.0225 42.7108C32.6433 44.3874 34.9146 45.4316 37.4248 45.4316C42.337 45.4316 46.3331 41.4355 46.3331 36.5233C46.334 32.5418 43.7086 29.1619 40.0975 28.0241ZM38.7844 26.5184C38.7844 26.9095 38.7689 27.3091 38.7423 27.7121C38.3126 27.6485 37.8726 27.615 37.4257 27.615C34.4746 27.615 31.8544 29.0579 30.2327 31.2742C29.4481 30.9975 28.6575 30.7062 27.9356 30.3684C26.7531 29.8167 26.0467 28.709 26.0467 27.4053V26.741C27.6056 25.5886 28.7245 23.8733 29.1001 21.8967H29.7987C31.1832 21.8967 32.3107 20.7701 32.3107 19.3848V17.0593C32.3107 16.4827 32.321 15.9215 32.3313 15.3784C32.3477 14.5121 32.3623 13.6948 32.333 12.93C36.397 16.2498 38.7844 21.2238 38.7844 26.5184ZM11.5104 17.0593C11.5104 16.432 12.0209 15.9215 12.6482 15.9215H13.2085V20.4306C13.2085 20.4616 13.2094 20.4925 13.2094 20.5234H12.6482C12.0209 20.5234 11.5104 20.013 11.5104 19.3856V17.0593ZM14.623 21.1482C14.6222 21.137 14.6205 21.1267 14.6187 21.1164C14.5947 20.8912 14.5818 20.6627 14.5818 20.4315V15.533C14.5818 15.4789 14.5844 15.4265 14.5895 15.3741C14.5938 15.3517 14.5973 15.3285 14.5998 15.3062C14.7107 14.5491 15.363 13.9647 16.1502 13.9647H16.7423C17.52 13.9647 18.2118 13.755 18.858 13.3227L19.8704 12.6473C20.7169 12.0801 21.7284 12.0801 22.5774 12.6473H22.5783L23.5889 13.3219C24.2352 13.7541 24.9278 13.9638 25.7047 13.9638H26.2968C27.1605 13.9638 27.8634 14.6677 27.8634 15.533V20.4315C27.8634 22.6478 26.7428 24.6063 25.0395 25.7725C24.9991 25.794 24.9613 25.8189 24.927 25.8473C23.9112 26.5116 22.7003 26.8991 21.3984 26.8991H21.0503C19.7664 26.8991 18.5702 26.5219 17.5638 25.8748C17.526 25.8447 17.4856 25.8189 17.4427 25.7966C15.9061 24.7593 14.8379 23.0801 14.623 21.1482ZM29.7979 15.9215C30.4252 15.9215 30.9357 16.432 30.9357 17.0593V19.3856C30.9357 20.013 30.4252 20.5234 29.7979 20.5234H29.2367C29.2367 20.4925 29.2376 20.4616 29.2376 20.4306V15.9215H29.7979ZM17.8173 27.5746C18.8039 28.0223 19.8987 28.2724 21.0503 28.2724H21.3984C22.5671 28.2724 23.6774 28.0146 24.6752 27.554C24.7087 28.6892 25.1212 29.7127 25.837 30.5042C25.0438 32.3218 23.2495 33.5155 21.2471 33.5155C19.2448 33.5155 17.4495 32.3209 16.6563 30.5034C17.3679 29.7162 17.7795 28.7013 17.8173 27.5746ZM19.9666 4.85961H26.6586C26.6784 4.85961 26.6852 4.86133 26.6973 4.88367C26.7076 4.90258 26.7084 4.90859 26.6947 4.92836L25.7674 6.24148C25.4744 6.66 25.4271 7.1868 25.6428 7.65602C25.862 8.12266 26.2977 8.42602 26.8047 8.46727C30.7475 8.8093 31.0259 10.6819 30.9666 14.8361C30.6177 14.6522 30.2207 14.5473 29.7996 14.5473H29.07C28.6644 13.407 27.5755 12.5888 26.2994 12.5888H25.7073C25.1968 12.5888 24.7791 12.4625 24.3537 12.178L23.3431 11.5034C22.036 10.6295 20.4127 10.6295 19.109 11.5034L18.0975 12.178C17.673 12.4616 17.2553 12.5888 16.7448 12.5888H16.1527C14.8748 12.5888 13.786 13.4078 13.3795 14.5473H12.6491C12.24 14.5473 11.8533 14.6462 11.5112 14.8206V12.2691C11.5104 7.45664 15.8674 4.85961 19.9666 4.85961ZM10.1371 12.9523V17.0559V17.0567V17.0584V19.3848C10.1371 20.7692 11.2637 21.8967 12.6491 21.8967H13.3477C13.7267 23.8922 14.8637 25.6213 16.4475 26.7737V27.4045C16.4475 28.709 15.742 29.8167 14.5595 30.3676C13.707 30.7655 12.7419 31.1049 11.8095 31.4332C9.50977 32.2427 7.14391 33.0763 5.85656 34.918C4.48844 32.4215 3.70984 29.5589 3.70984 26.5176C3.70812 21.2445 6.08859 16.2712 10.1371 12.9523ZM21.248 44.0574C15.1756 44.0574 9.81484 40.9551 6.66523 36.2526C7.55297 34.3895 9.84492 33.5816 12.2649 32.73C13.2283 32.3905 14.2252 32.0399 15.1387 31.6137C15.2839 31.5458 15.4248 31.4719 15.5598 31.392C16.6383 33.5146 18.8237 34.8888 21.248 34.8888C23.6723 34.8888 25.8577 33.5155 26.9362 31.3928C27.0702 31.4719 27.2094 31.5458 27.3547 31.6128C28.043 31.9342 28.7701 32.2101 29.4945 32.4696C28.8706 33.6865 28.5174 36.5233C28.5174 38.4259 29.1173 40.1911 30.1373 41.64C27.4492 43.223 24.3924 44.0574 21.248 44.0574ZM37.4248 44.0574C33.2706 44.0574 29.8898 40.6775 29.8898 36.5233C29.8898 32.3691 33.2698 28.9891 37.4248 28.9891C41.5791 28.9891 44.9598 32.3691 44.9598 36.5233C44.9598 40.6775 41.5799 44.0574 37.4248 44.0574ZM41.7303 33.7862C41.9984 34.0543 41.9984 34.4891 41.7303 34.7581L37.2289 39.2578C37.0948 39.3919 36.9187 39.4589 36.7434 39.4589C36.5672 39.4589 36.3919 39.3919 36.2578 39.2578L33.1202 36.1202C32.8521 35.8521 32.8521 35.4173 33.1202 35.1491C33.3884 34.881 33.8232 34.881 34.0913 35.1491L36.7434 37.8012L40.7592 33.787C41.0273 33.518 41.4622 33.518 41.7303 33.7862Z" fill="#C0A88C"/>
  <path d="M40.0975 28.0241C40.137 27.5153 40.1577 27.0109 40.1577 26.5176C40.1577 20.3559 37.1584 14.5955 32.1216 11.0488C32.034 10.6372 31.9145 10.2496 31.7521 9.88695C30.9993 8.20516 29.4645 7.31914 26.9181 7.09828C26.9001 7.09656 26.8958 7.09656 26.8872 7.0768C26.8777 7.05531 26.8777 7.0493 26.8898 7.03211L27.8162 5.71984C28.1264 5.27813 28.1634 4.72898 27.915 4.25117C27.6658 3.7725 27.1957 3.48633 26.6577 3.48633H19.9658C17.404 3.48633 14.996 4.30359 13.187 5.78688C11.5061 7.16531 10.4714 9.04734 10.2059 11.1691C5.27133 14.7218 2.33398 20.4349 2.33398 26.5184C2.33398 31.5698 4.30109 36.3196 7.87352 39.892C11.4459 43.4645 16.1957 45.4316 21.2471 45.4316C24.7112 45.4316 28.0783 44.4923 31.0225 42.7108C32.6433 44.3874 34.9146 45.4316 37.4248 45.4316C42.337 45.4316 46.3331 41.4355 46.3331 36.5233C46.334 32.5418 43.7086 29.1619 40.0975 28.0241ZM38.7844 26.5184C38.7844 26.9095 38.7689 27.3091 38.7423 27.7121C38.3126 27.6485 37.8726 27.615 37.4257 27.615C34.4746 27.615 31.8544 29.0579 30.2327 31.2742C29.4481 30.9975 28.6575 30.7062 27.9356 30.3684C26.7531 29.8167 26.0467 28.709 26.0467 27.4053V26.741C27.6056 25.5886 28.7245 23.8733 29.1001 21.8967H29.7987C31.1832 21.8967 32.3107 20.7701 32.3107 19.3848V17.0593C32.3107 16.4827 32.321 15.9215 32.3313 15.3784C32.3477 14.5121 32.3623 13.6948 32.333 12.93C36.397 16.2498 38.7844 21.2238 38.7844 26.5184ZM11.5104 17.0593C11.5104 16.432 12.0209 15.9215 12.6482 15.9215H13.2085V20.4306C13.2085 20.4616 13.2094 20.4925 13.2094 20.5234H12.6482C12.0209 20.5234 11.5104 20.013 11.5104 19.3856V17.0593ZM14.623 21.1482C14.6222 21.137 14.6205 21.1267 14.6187 21.1164C14.5947 20.8912 14.5818 20.6627 14.5818 20.4315V15.533C14.5818 15.4789 14.5844 15.4265 14.5895 15.3741C14.5938 15.3517 14.5973 15.3285 14.5998 15.3062C14.7107 14.5491 15.363 13.9647 16.1502 13.9647H16.7423C17.52 13.9647 18.2118 13.755 18.858 13.3227L19.8704 12.6473C20.7169 12.0801 21.7284 12.0801 22.5774 12.6473H22.5783L23.5889 13.3219C24.2352 13.7541 24.9278 13.9638 25.7047 13.9638H26.2968C27.1605 13.9638 27.8634 14.6677 27.8634 15.533V20.4315C27.8634 22.6478 26.7428 24.6063 25.0395 25.7725C24.9991 25.794 24.9613 25.8189 24.927 25.8473C23.9112 26.5116 22.7003 26.8991 21.3984 26.8991H21.0503C19.7664 26.8991 18.5702 26.5219 17.5638 25.8748C17.526 25.8447 17.4856 25.8189 17.4427 25.7966C15.9061 24.7593 14.8379 23.0801 14.623 21.1482ZM29.7979 15.9215C30.4252 15.9215 30.9357 16.432 30.9357 17.0593V19.3856C30.9357 20.013 30.4252 20.5234 29.7979 20.5234H29.2367C29.2367 20.4925 29.2376 20.4616 29.2376 20.4306V15.9215H29.7979ZM17.8173 27.5746C18.8039 28.0223 19.8987 28.2724 21.0503 28.2724H21.3984C22.5671 28.2724 23.6774 28.0146 24.6752 27.554C24.7087 28.6892 25.1212 29.7127 25.837 30.5042C25.0438 32.3218 23.2495 33.5155 21.2471 33.5155C19.2448 33.5155 17.4495 32.3209 16.6563 30.5034C17.3679 29.7162 17.7795 28.7013 17.8173 27.5746ZM19.9666 4.85961H26.6586C26.6784 4.85961 26.6852 4.86133 26.6973 4.88367C26.7076 4.90258 26.7084 4.90859 26.6947 4.92836L25.7674 6.24148C25.4744 6.66 25.4271 7.1868 25.6428 7.65602C25.862 8.12266 26.2977 8.42602 26.8047 8.46727C30.7475 8.8093 31.0259 10.6819 30.9666 14.8361C30.6177 14.6522 30.2207 14.5473 29.7996 14.5473H29.07C28.6644 13.407 27.5755 12.5888 26.2994 12.5888H25.7073C25.1968 12.5888 24.7791 12.4625 24.3537 12.178L23.3431 11.5034C22.036 10.6295 20.4127 10.6295 19.109 11.5034L18.0975 12.178C17.673 12.4616 17.2553 12.5888 16.7448 12.5888H16.1527C14.8748 12.5888 13.786 13.4078 13.3795 14.5473H12.6491C12.24 14.5473 11.8533 14.6462 11.5112 14.8206V12.2691C11.5104 7.45664 15.8674 4.85961 19.9666 4.85961ZM10.1371 12.9523V17.0559V17.0567V17.0584V19.3848C10.1371 20.7692 11.2637 21.8967 12.6491 21.8967H13.3477C13.7267 23.8922 14.8637 25.6213 16.4475 26.7737V27.4045C16.4475 28.709 15.742 29.8167 14.5595 30.3676C13.707 30.7655 12.7419 31.1049 11.8095 31.4332C9.50977 32.2427 7.14391 33.0763 5.85656 34.918C4.48844 32.4215 3.70984 29.5589 3.70984 26.5176C3.70812 21.2445 6.08859 16.2712 10.1371 12.9523ZM21.248 44.0574C15.1756 44.0574 9.81484 40.9551 6.66523 36.2526C7.55297 34.3895 9.84492 33.5816 12.2649 32.73C13.2283 32.3905 14.2252 32.0399 15.1387 31.6137C15.2839 31.5458 15.4248 31.4719 15.5598 31.392C16.6383 33.5146 18.8237 34.8888 21.248 34.8888C23.6723 34.8888 25.8577 33.5155 26.9362 31.3928C27.0702 31.4719 27.2094 31.5458 27.3547 31.6128C28.043 31.9342 28.7701 32.2101 29.4945 32.4696C28.8706 33.6865 28.5174 36.5233C28.5174 38.4259 29.1173 40.1911 30.1373 41.64C27.4492 43.223 24.3924 44.0574 21.248 44.0574ZM37.4248 44.0574C33.2706 44.0574 29.8898 40.6775 29.8898 36.5233C29.8898 32.3691 33.2698 28.9891 37.4248 28.9891C41.5791 28.9891 44.9598 32.3691 44.9598 36.5233C44.9598 40.6775 41.5799 44.0574 37.4248 44.0574ZM41.7303 33.7862C41.9984 34.0543 41.9984 34.4891 41.7303 34.7581L37.2289 39.2578C37.0948 39.3919 36.9187 39.4589 36.7434 39.4589C36.5672 39.4589 36.3919 39.3919 36.2578 39.2578L33.1202 36.1202C32.8521 35.8521 32.8521 35.4173 33.1202 35.1491C33.3884 34.881 33.8232 34.881 34.0913 35.1491L36.7434 37.8012L40.7592 33.787C41.0273 33.518 41.4622 33.518 41.7303 33.7862Z" stroke="#C0A88C" stroke-width="0.6"></path></svg>
