<svg xmlns="http://www.w3.org/2000/svg" width="14" height="19" viewBox="0 0 14 19" fill="none"><g clip-path="url(#clip0_3307_1704)"><path d="M7.5832 17.6086C9.38672 15.3516 13.5 9.88125 13.5 6.80859C13.5 3.08203 10.4766 0.0585938 6.75 0.0585938C3.02344 0.0585938 0 3.08203 0 6.80859C0 9.88125 4.11328 15.3516 5.9168 17.6086C6.34922 18.1465 7.15078 18.1465 7.5832 17.6086ZM6.75 4.55859C7.34674 4.55859 7.91903 4.79565 8.34099 5.2176C8.76295 5.63956 9 6.21186 9 6.80859C9 7.40533 8.76295 7.97763 8.34099 8.39958C7.91903 8.82154 7.34674 9.05859 6.75 9.05859C6.15326 9.05859 5.58097 8.82154 5.15901 8.39958C4.73705 7.97763 4.5 7.40533 4.5 6.80859C4.5 6.21186 4.73705 5.63956 5.15901 5.2176C5.58097 4.79565 6.15326 4.55859 6.75 4.55859Z" fill="white"></path></g><defs><clipPath id="clip0_3307_1704"><rect width="13.5" height="18" fill="white" transform="translate(0 0.0585938)"></rect></clipPath></defs></svg>