<svg xmlns="http://www.w3.org/2000/svg" width="43" height="43" viewBox="0 0 43 43" fill="none"><path d="M37.827 2.1499H14.2441C12.577 2.1499 11.2207 3.50622 11.2207 5.17334V7.44092C11.2207 7.8583 11.5591 8.19678 11.9766 8.19678H15.7559V11.6737H4.41797C3.16763 11.6737 2.15039 12.691 2.15039 13.9413V38.5823C2.15039 39.8327 3.16763 40.8499 4.41797 40.8499H40.0945C40.512 40.8499 40.8504 40.5114 40.8504 40.094V5.17334C40.8504 3.50629 39.4942 2.1499 37.827 2.1499ZM12.7324 6.68506V5.17334C12.7324 4.33978 13.4106 3.66162 14.2441 3.66087H35.2093C34.9514 4.1066 34.8035 4.62307 34.8035 5.17334V6.68506H12.7324ZM21.8027 38.5823C21.8027 38.9991 21.4637 39.3382 21.0469 39.3382C20.3464 39.3382 5.25743 39.3382 4.41797 39.3382C4.00119 39.3382 3.66211 38.9991 3.66211 38.5823V25.2792H21.8027V38.5823ZM21.8027 23.7675H3.66211V13.9413C3.66211 13.5245 4.00119 13.1854 4.41797 13.1854H21.0469C21.4637 13.1854 21.8027 13.5245 21.8027 13.9413V23.7675ZM39.3387 39.3382H23.1844C23.2683 39.1016 23.3145 38.8473 23.3145 38.5823V13.9413C23.3145 12.691 22.2972 11.6737 21.0469 11.6737H17.2676V8.19678H35.5594C35.9768 8.19678 36.3152 7.8583 36.3152 7.44092V5.17334C36.3152 4.33978 36.9934 3.66162 37.827 3.66162C38.6605 3.66162 39.3387 4.33978 39.3387 5.17334V39.3382Z" fill="#C0A88C"></path><path d="M35.5594 28.5293H25.582C25.1646 28.5293 24.8262 28.8678 24.8262 29.2852C24.8262 29.7025 25.1646 30.041 25.582 30.041H35.5594C35.9768 30.041 36.3152 29.7025 36.3152 29.2852C36.3152 28.8678 35.9768 28.5293 35.5594 28.5293Z" fill="#C0A88C"></path><path d="M35.5594 25.8418H25.582C25.1646 25.8418 24.8262 26.1803 24.8262 26.5977C24.8262 27.015 25.1646 27.3535 25.582 27.3535H35.5594C35.9768 27.3535 36.3152 27.015 36.3152 26.5977C36.3152 26.1803 35.9768 25.8418 35.5594 25.8418Z" fill="#C0A88C"></path><path d="M35.5594 31.5527H25.582C25.1646 31.5527 24.8262 31.8912 24.8262 32.3086C24.8262 32.726 25.1646 33.0645 25.582 33.0645H35.5594C35.9768 33.0645 36.3152 32.726 36.3152 32.3086C36.3152 31.8912 35.9768 31.5527 35.5594 31.5527Z" fill="#C0A88C"></path><path d="M35.5594 34.5762H25.582C25.1646 34.5762 24.8262 34.9146 24.8262 35.332C24.8262 35.7494 25.1646 36.0879 25.582 36.0879H35.5594C35.9768 36.0879 36.3152 35.7494 36.3152 35.332C36.3152 34.9146 35.9768 34.5762 35.5594 34.5762Z" fill="#C0A88C"></path><path d="M19.5352 16.209H5.92969C5.51223 16.209 5.17383 16.5475 5.17383 16.9648V19.9883C5.17383 20.4057 5.51223 20.7441 5.92969 20.7441H19.5352C19.9526 20.7441 20.291 20.4057 20.291 19.9883V16.9648C20.291 16.5475 19.9526 16.209 19.5352 16.209Z" fill="#C0A88C"></path><path d="M7.44141 28.5293H8.95312C9.37059 28.5293 9.70898 28.1908 9.70898 27.7734C9.70898 27.3561 9.37059 27.0176 8.95312 27.0176H7.44141C7.02395 27.0176 6.68555 27.3561 6.68555 27.7734C6.68555 28.1908 7.02395 28.5293 7.44141 28.5293Z" fill="#C0A88C"></path><path d="M7.44141 31.5527H8.95312C9.37059 31.5527 9.70898 31.2143 9.70898 30.7969C9.70898 30.3795 9.37059 30.041 8.95312 30.041H7.44141C7.02395 30.041 6.68555 30.3795 6.68555 30.7969C6.68555 31.2143 7.02395 31.5527 7.44141 31.5527Z" fill="#C0A88C"></path><path d="M11.9766 28.5293H13.4883C13.9057 28.5293 14.2441 28.1908 14.2441 27.7734C14.2441 27.3561 13.9057 27.0176 13.4883 27.0176H11.9766C11.5591 27.0176 11.2207 27.3561 11.2207 27.7734C11.2207 28.1908 11.5591 28.5293 11.9766 28.5293Z" fill="#C0A88C"></path><path d="M11.9766 31.5527H13.4883C13.9057 31.5527 14.2441 31.2143 14.2441 30.7969C14.2441 30.3795 13.9057 30.041 13.4883 30.041H11.9766C11.5591 30.041 11.2207 30.3795 11.2207 30.7969C11.2207 31.2143 11.5591 31.5527 11.9766 31.5527Z" fill="#C0A88C"></path><path d="M16.5117 28.5293H18.0234C18.4409 28.5293 18.7793 28.1908 18.7793 27.7734C18.7793 27.3561 18.4409 27.0176 18.0234 27.0176H16.5117C16.0943 27.0176 15.7559 27.3561 15.7559 27.7734C15.7559 28.1908 16.0943 28.5293 16.5117 28.5293Z" fill="#C0A88C"></path><path d="M16.5117 31.5527H18.0234C18.4409 31.5527 18.7793 31.2143 18.7793 30.7969C18.7793 30.3795 18.4409 30.041 18.0234 30.041H16.5117C16.0943 30.041 15.7559 30.3795 15.7559 30.7969C15.7559 31.2143 16.0943 31.5527 16.5117 31.5527Z" fill="#C0A88C"></path><path d="M16.5117 34.5762H18.0234C18.4409 34.5762 18.7793 34.2377 18.7793 33.8203C18.7793 33.4029 18.4409 33.0645 18.0234 33.0645H16.5117C16.0943 33.0645 15.7559 33.4029 15.7559 33.8203C15.7559 34.2377 16.0943 34.5762 16.5117 34.5762Z" fill="#C0A88C"></path><path d="M16.5117 37.5996H18.0234C18.4409 37.5996 18.7793 37.2611 18.7793 36.8438C18.7793 36.4264 18.4409 36.0879 18.0234 36.0879H16.5117C16.0943 36.0879 15.7559 36.4264 15.7559 36.8438C15.7559 37.2611 16.0943 37.5996 16.5117 37.5996Z" fill="#C0A88C"></path><path d="M11.9766 34.5762H13.4883C13.9057 34.5762 14.2441 34.2377 14.2441 33.8203C14.2441 33.4029 13.9057 33.0645 13.4883 33.0645H11.9766C11.5591 33.0645 11.2207 33.4029 11.2207 33.8203C11.2207 34.2377 11.5591 34.5762 11.9766 34.5762Z" fill="#C0A88C"></path><path d="M11.9766 37.5996H13.4883C13.9057 37.5996 14.2441 37.2611 14.2441 36.8438C14.2441 36.4264 13.9057 36.0879 13.4883 36.0879H11.9766C11.5591 36.0879 11.2207 36.4264 11.2207 36.8438C11.2207 37.2611 11.5591 37.5996 11.9766 37.5996Z" fill="#C0A88C"></path><path d="M7.44141 34.5762H8.95312C9.37059 34.5762 9.70898 34.2377 9.70898 33.8203C9.70898 33.4029 9.37059 33.0645 8.95312 33.0645H7.44141C7.02395 33.0645 6.68555 33.4029 6.68555 33.8203C6.68555 34.2377 7.02395 34.5762 7.44141 34.5762Z" fill="#C0A88C"></path><path d="M7.44141 37.5996H8.95312C9.37059 37.5996 9.70898 37.2611 9.70898 36.8438C9.70898 36.4264 9.37059 36.0879 8.95312 36.0879H7.44141C7.02395 36.0879 6.68555 36.4264 6.68555 36.8438C6.68555 37.2611 7.02395 37.5996 7.44141 37.5996Z" fill="#C0A88C"></path><g clip-path="url(#clip0_3331_315)"><path d="M35.6272 20.3355C35.3522 20.0604 34.9092 20.0604 34.6341 20.3355L34.3885 20.5811C33.7103 21.2635 32.7886 21.6456 31.827 21.6414C30.4832 21.6414 29.2423 20.915 28.5831 19.7455H31.4049C31.7934 19.7455 32.1083 19.4305 32.1083 19.0442C32.1083 18.6558 31.7934 18.3408 31.407 18.3408H28.1274C28.1106 18.2002 28.1043 18.0595 28.1043 17.9188C28.1043 17.6837 28.1274 17.4485 28.1715 17.2155H31.407C31.7955 17.2155 32.1104 16.9005 32.1104 16.5121C32.1104 16.1237 31.7955 15.8087 31.407 15.8087H28.7615C29.4544 14.7967 30.6029 14.192 31.8291 14.192C32.7907 14.1899 33.7124 14.572 34.3906 15.2523L34.5984 15.4602C34.8735 15.7352 35.3186 15.7352 35.5915 15.4602C35.8645 15.1851 35.8666 14.74 35.5915 14.4671L35.3837 14.2592C34.4431 13.3144 33.1623 12.7832 31.827 12.7874C29.7504 12.7874 27.9574 14.0282 27.1511 15.8087H25.7864C25.3979 15.8087 25.083 16.1237 25.083 16.5121C25.083 16.9005 25.3979 17.2155 25.7864 17.2155H26.748C26.7144 17.4464 26.6997 17.6816 26.6997 17.9167C26.6997 18.0595 26.706 18.2002 26.7165 18.3387H25.7864C25.3979 18.3387 25.083 18.6537 25.083 19.04C25.083 19.4284 25.3979 19.7434 25.7864 19.7434H27.0356C27.7726 21.6729 29.6434 23.0461 31.827 23.0461C33.1602 23.0503 34.441 22.5191 35.3816 21.5742L35.6272 21.3286C35.9023 21.0535 35.9023 20.6084 35.6272 20.3355Z" fill="#C0A88C"></path></g><defs><clipPath id="clip0_3331_315"><rect width="10.75" height="10.75" fill="white" transform="translate(25.083 12.5417)"></rect></clipPath></defs></svg>