<svg xmlns="http://www.w3.org/2000/svg" width="19" height="19" viewBox="0 0 19 19" fill="none"><rect x="0.0566406" y="0.479492" width="18" height="18" rx="9" fill="#39404D"></rect><path d="M7.55618 11.5796L5.80618 9.82962C5.76042 9.7833 5.70592 9.74652 5.64584 9.72142C5.58576 9.69632 5.52129 9.6834 5.45618 9.6834C5.39107 9.6834 5.3266 9.69632 5.26652 9.72142C5.20644 9.74652 5.15194 9.7833 5.10618 9.82962C5.05986 9.87538 5.02309 9.92988 4.99799 9.98996C4.97289 10.05 4.95996 10.1145 4.95996 10.1796C4.95996 10.2447 4.97289 10.3092 4.99799 10.3693C5.02309 10.4294 5.05986 10.4839 5.10618 10.5296L7.20118 12.6246C7.39618 12.8196 7.71118 12.8196 7.90618 12.6246L13.2062 7.32962C13.2525 7.28386 13.2893 7.22936 13.3144 7.16928C13.3395 7.1092 13.3524 7.04473 13.3524 6.97962C13.3524 6.91451 13.3395 6.85004 13.3144 6.78996C13.2893 6.72988 13.2525 6.67538 13.2062 6.62962C13.1604 6.5833 13.1059 6.54652 13.0458 6.52142C12.9858 6.49632 12.9213 6.4834 12.8562 6.4834C12.7911 6.4834 12.7266 6.49632 12.6665 6.52142C12.6064 6.54652 12.5519 6.5833 12.5062 6.62962L7.55618 11.5796Z" fill="#F2EDE6"></path></svg>