<svg xmlns="http://www.w3.org/2000/svg" width="43" height="43" viewBox="0 0 43 43" fill="none"><path d="M15.3293 30.1196C15.0105 30.1196 14.752 30.3781 14.752 30.697V38.5405C14.752 38.8594 15.0105 39.1179 15.3293 39.1179C15.6482 39.1179 15.9067 38.8594 15.9067 38.5405V30.697C15.9067 30.3781 15.6482 30.1196 15.3293 30.1196Z" fill="#C0A88C"></path><path d="M27.6711 30.1196C27.3523 30.1196 27.0938 30.3781 27.0938 30.697V38.5405C27.0938 38.8594 27.3523 39.1179 27.6711 39.1179C27.99 39.1179 28.2485 38.8594 28.2485 38.5405V30.697C28.2485 30.3781 27.99 30.1196 27.6711 30.1196Z" fill="#C0A88C"></path><path d="M10.6506 17.8382C9.30982 17.1679 6.79601 17.1602 6.68962 17.1602C6.37082 17.1602 6.11238 17.4185 6.1123 17.7374C6.11223 18.0562 6.37059 18.3148 6.68947 18.3149C7.33907 18.3153 9.22406 18.416 10.1342 18.8711C10.2171 18.9126 10.3052 18.9321 10.3919 18.9321C10.6037 18.9321 10.8077 18.8151 10.9088 18.6129C11.0515 18.3276 10.9358 17.9808 10.6506 17.8382Z" fill="#C0A88C"></path><path d="M4.83813 28.8855C4.51926 28.8855 4.26074 29.144 4.26074 29.4629V38.5407C4.26074 38.8595 4.51926 39.1181 4.83813 39.1181C5.15701 39.1181 5.41553 38.8595 5.41553 38.5407V29.4629C5.41553 29.1441 5.15709 28.8855 4.83813 28.8855Z" fill="#C0A88C"></path><mask id="path-5-outside-1_3331_500" maskUnits="userSpaceOnUse" x="0.791992" y="2.58325" width="41" height="37" fill="black"><rect fill="white" x="0.791992" y="2.58325" width="41" height="37"></rect><path d="M39.866 26.729L37.5277 25.5601C37.5142 25.5533 37.5057 25.5396 37.5057 25.5245L37.5059 24.3493C38.4657 23.6884 39.1451 22.6436 39.3151 21.4173C39.7469 20.6713 39.9743 19.8286 39.9743 18.9717C39.9743 17.3739 39.205 15.9526 38.0175 15.0582C38.087 14.8264 38.123 14.5873 38.123 14.3433C38.123 12.8339 36.7566 11.6059 35.0771 11.6059C33.3977 11.6059 32.0313 12.8339 32.0313 14.3433C32.0313 14.5876 32.0669 14.8268 32.1364 15.0584C31.4284 15.5918 30.8701 16.313 30.534 17.1467C30.3909 15.7403 30.2418 14.0776 30.0989 12.1408C29.9103 9.58535 28.9912 7.42729 27.4412 5.90005C25.9029 4.38436 23.8486 3.58325 21.5003 3.58325C19.152 3.58325 17.0976 4.38436 15.5595 5.89998C14.0095 7.42729 13.0905 9.58535 12.9018 12.1407C12.8517 12.8192 12.8009 13.4623 12.7499 14.0744H7.30639C5.2866 14.0744 3.64334 15.7176 3.64334 17.7374V17.7718C3.64334 18.2422 3.75451 18.7133 3.96491 19.134L4.26046 19.7252V20.6679C4.26046 22.1619 4.99667 23.5024 6.1118 24.3091V25.143C6.1118 25.25 6.03998 25.3451 5.9372 25.3745L3.5535 26.0556C2.51635 26.3519 1.79199 27.3122 1.79199 28.3908V38.5406C1.79199 38.8594 2.05051 39.1179 2.36938 39.1179C2.68826 39.1179 2.94677 38.8594 2.94677 38.5406V28.3908C2.94677 27.825 3.32678 27.3213 3.87076 27.1658L6.25453 26.4848C6.34053 26.4602 6.42221 26.4269 6.49996 26.3873L7.96323 27.8506V38.5406C7.96323 38.8594 8.22175 39.1179 8.54062 39.1179C8.85949 39.1179 9.11801 38.8594 9.11801 38.5406V27.8506L10.5915 26.3771C10.7884 26.4737 10.9847 26.5299 11.1285 26.571L11.7138 26.7382C10.9206 27.3022 10.4318 28.2221 10.4318 29.2196V38.5404C10.4318 38.8593 10.6903 39.1178 11.0092 39.1178C11.328 39.1178 11.5866 38.8593 11.5866 38.5404V29.2196C11.5866 28.4711 12.029 27.7921 12.7137 27.4897L16.0148 26.0317C17.0493 28.1033 19.1632 29.423 21.5004 29.423C23.8463 29.423 25.9531 28.1062 26.9869 26.0322L30.287 27.4897C30.9717 27.7921 31.4142 28.4711 31.4142 29.2196V38.5404C31.4142 38.8593 31.6727 39.1178 31.9916 39.1178C32.3104 39.1178 32.569 38.8593 32.569 38.5404V29.2196C32.569 28.481 32.3005 27.7852 31.8397 27.2443L32.7333 26.7975L33.4041 27.435C33.8732 27.8809 34.4751 28.1037 35.0772 28.1037C35.6791 28.1037 36.2813 27.8807 36.7503 27.435L37.421 26.7976L39.3496 27.7619C39.784 27.979 40.0539 28.4157 40.0539 28.9014V38.5405C40.0539 38.8594 40.3124 39.1179 40.6313 39.1179C40.9501 39.1179 41.2087 38.8594 41.2087 38.5405V28.9014C41.2086 27.9756 40.6941 27.1431 39.866 26.729ZM35.0771 12.7606C36.1198 12.7606 36.9681 13.4706 36.9681 14.3432C36.9681 14.3798 36.9652 14.416 36.9623 14.4522C36.3817 14.2091 35.7448 14.0744 35.0771 14.0744C34.4094 14.0744 33.7726 14.2091 33.1922 14.4521C33.1892 14.416 33.186 14.3798 33.186 14.3432C33.186 13.4706 34.0344 12.7606 35.0771 12.7606ZM8.5407 26.7949L7.22501 25.4792C7.25219 25.3708 7.26674 25.2581 7.26674 25.143V24.8994C7.62996 25.0186 8.01304 25.0894 8.40944 25.1012C8.45386 25.1026 8.49805 25.1032 8.54231 25.1032C8.98021 25.1032 9.40771 25.0371 9.8145 24.9109V25.1427C9.8145 25.268 9.82736 25.3816 9.85022 25.4854L8.5407 26.7949ZM8.44408 23.9468C6.77396 23.8969 5.41524 22.4258 5.41524 20.6679V19.5889C5.41524 19.4992 5.39438 19.4108 5.35427 19.3306L4.99775 18.6176C4.86718 18.3563 4.79812 18.0639 4.79812 17.7718V17.7374C4.79812 16.3544 5.92334 15.2292 7.30639 15.2292H12.2832V17.6261C12.2832 18.0134 12.1917 18.4014 12.0184 18.7478L11.727 19.3306C11.6869 19.4108 11.666 19.4992 11.666 19.5888V20.823C11.666 21.6755 11.329 22.4722 10.7169 23.0661C10.1052 23.6596 9.29754 23.9727 8.44408 23.9468ZM13.2698 25.9817L11.4457 25.4606C10.9692 25.3245 10.9693 25.2714 10.9693 25.1429L10.9694 24.3474C11.1634 24.2131 11.3483 24.0627 11.5213 23.8948C11.6377 23.7819 11.7461 23.663 11.8477 23.5398C11.9405 23.728 12.0826 23.8923 12.2664 24.0113C12.7292 24.311 13.6026 24.8089 14.8871 25.2674L13.2698 25.9817ZM21.5003 28.2683C19.6217 28.2683 17.9203 27.2182 17.0718 25.5649L17.9123 25.1937C18.5682 24.904 18.992 24.2536 18.992 23.5365V22.1511C19.7678 22.4628 20.6143 22.6347 21.5003 22.6347C22.3862 22.6347 23.2327 22.4628 24.0086 22.1511V23.5365C24.0086 24.2536 24.4324 24.9041 25.0883 25.1937L25.9286 25.5649C25.0807 27.22 23.3859 28.2683 21.5003 28.2683ZM26.507 24.5579L25.5548 24.1373C25.317 24.0323 25.1633 23.7964 25.1633 23.5364V21.5514C27.0188 20.3475 28.249 18.2578 28.249 15.886V14.8034C28.249 14.0997 27.9498 13.4359 27.4282 12.9823C26.2681 11.9734 23.642 10.2126 19.0893 9.75734C18.7728 9.72562 18.489 9.95704 18.4573 10.2744C18.4256 10.5918 18.6571 10.8747 18.9744 10.9064C23.209 11.3298 25.6138 12.9348 26.6704 13.8537C26.9398 14.0879 27.0942 14.4341 27.0942 14.8034V15.886C27.0942 18.9704 24.5848 21.4798 21.5004 21.4798C18.4159 21.4798 15.9065 18.9704 15.9065 15.886V15.403C15.9065 15.1811 16.0295 14.9779 16.2356 14.8592C16.9574 14.4436 17.9095 13.6736 18.3454 12.3658C18.4463 12.0634 18.2828 11.7363 17.9802 11.6355C17.6778 11.5346 17.3507 11.6981 17.2498 12.0007C16.9287 12.9642 16.2076 13.5428 15.6593 13.8585C15.0995 14.1808 14.7517 14.7727 14.7517 15.4031V15.8861C14.7517 18.2579 15.9817 20.3476 17.8373 21.5514V23.5365C17.8373 23.7965 17.6837 24.0323 17.4458 24.1374L16.4936 24.558C14.6339 24.0604 13.4424 23.397 12.894 23.042C12.8831 23.035 12.8769 23.0269 12.88 23.0086C13.0814 21.8181 13.5989 18.3842 14.0536 12.2258C14.2212 9.95357 15.0223 8.05049 16.37 6.72249C17.6877 5.42428 19.4616 4.73804 21.5003 4.73804C23.5389 4.73804 25.3129 5.42428 26.6305 6.72249C27.9783 8.05049 28.7793 9.9535 28.9471 12.2257C29.4017 18.3839 29.9192 21.818 30.1207 23.0085C30.1237 23.0269 30.1176 23.035 30.1066 23.042C29.5574 23.3975 28.3659 24.0605 26.507 24.5579ZM32.6483 25.5244C32.6483 25.5396 32.6399 25.5532 32.6264 25.56L30.8174 26.4645C30.7959 26.4544 30.7753 26.4431 30.7536 26.4335L28.1136 25.2675C29.3975 24.8092 30.2707 24.3115 30.7342 24.0114C31.1323 23.7536 31.3385 23.2845 31.2593 22.816C31.255 22.7904 31.2503 22.7623 31.2457 22.7346C31.5704 23.3875 32.0559 23.9415 32.6483 24.3493V25.5244ZM35.9545 26.598C35.4625 27.0658 34.6916 27.0657 34.1994 26.598L33.6628 26.088C33.7533 25.9184 33.803 25.7259 33.803 25.5244V24.91C34.2063 25.0351 34.634 25.1032 35.077 25.1032C35.5199 25.1032 35.9477 25.0351 36.3509 24.91L36.3508 25.5243C36.3508 25.7259 36.4005 25.9184 36.4911 26.0881L35.9545 26.598ZM35.0771 23.9483C33.4784 23.9483 32.1431 22.7512 31.9712 21.1637C31.962 21.0786 31.9341 20.9967 31.8893 20.9237C31.5263 20.3327 31.3346 19.6577 31.3346 18.9716C31.3346 16.9081 33.0134 15.2292 35.0771 15.2292C37.1407 15.2292 38.8196 16.9081 38.8196 18.9717C38.8196 19.3694 38.7547 19.7635 38.6297 20.1396C36.9902 18.474 34.1061 17.8213 33.9671 17.7906C33.7963 17.753 33.6176 17.7949 33.4812 17.9044C33.3448 18.014 33.2654 18.1796 33.2654 18.3545C33.2654 18.3582 33.2391 18.7588 32.8175 19.1804C32.592 19.4059 32.592 19.7715 32.8175 19.997C33.043 20.2224 33.4086 20.2224 33.634 19.997C33.9587 19.6722 34.1495 19.3427 34.2614 19.0643C35.233 19.353 37.2494 20.0819 38.1544 21.3613C37.8976 22.8493 36.6085 23.9483 35.0771 23.9483Z"></path></mask><path d="M39.866 26.729L37.5277 25.5601C37.5142 25.5533 37.5057 25.5396 37.5057 25.5245L37.5059 24.3493C38.4657 23.6884 39.1451 22.6436 39.3151 21.4173C39.7469 20.6713 39.9743 19.8286 39.9743 18.9717C39.9743 17.3739 39.205 15.9526 38.0175 15.0582C38.087 14.8264 38.123 14.5873 38.123 14.3433C38.123 12.8339 36.7566 11.6059 35.0771 11.6059C33.3977 11.6059 32.0313 12.8339 32.0313 14.3433C32.0313 14.5876 32.0669 14.8268 32.1364 15.0584C31.4284 15.5918 30.8701 16.313 30.534 17.1467C30.3909 15.7403 30.2418 14.0776 30.0989 12.1408C29.9103 9.58535 28.9912 7.42729 27.4412 5.90005C25.9029 4.38436 23.8486 3.58325 21.5003 3.58325C19.152 3.58325 17.0976 4.38436 15.5595 5.89998C14.0095 7.42729 13.0905 9.58535 12.9018 12.1407C12.8517 12.8192 12.8009 13.4623 12.7499 14.0744H7.30639C5.2866 14.0744 3.64334 15.7176 3.64334 17.7374V17.7718C3.64334 18.2422 3.75451 18.7133 3.96491 19.134L4.26046 19.7252V20.6679C4.26046 22.1619 4.99667 23.5024 6.1118 24.3091V25.143C6.1118 25.25 6.03998 25.3451 5.9372 25.3745L3.5535 26.0556C2.51635 26.3519 1.79199 27.3122 1.79199 28.3908V38.5406C1.79199 38.8594 2.05051 39.1179 2.36938 39.1179C2.68826 39.1179 2.94677 38.8594 2.94677 38.5406V28.3908C2.94677 27.825 3.32678 27.3213 3.87076 27.1658L6.25453 26.4848C6.34053 26.4602 6.42221 26.4269 6.49996 26.3873L7.96323 27.8506V38.5406C7.96323 38.8594 8.22175 39.1179 8.54062 39.1179C8.85949 39.1179 9.11801 38.8594 9.11801 38.5406V27.8506L10.5915 26.3771C10.7884 26.4737 10.9847 26.5299 11.1285 26.571L11.7138 26.7382C10.9206 27.3022 10.4318 28.2221 10.4318 29.2196V38.5404C10.4318 38.8593 10.6903 39.1178 11.0092 39.1178C11.328 39.1178 11.5866 38.8593 11.5866 38.5404V29.2196C11.5866 28.4711 12.029 27.7921 12.7137 27.4897L16.0148 26.0317C17.0493 28.1033 19.1632 29.423 21.5004 29.423C23.8463 29.423 25.9531 28.1062 26.9869 26.0322L30.287 27.4897C30.9717 27.7921 31.4142 28.4711 31.4142 29.2196V38.5404C31.4142 38.8593 31.6727 39.1178 31.9916 39.1178C32.3104 39.1178 32.569 38.8593 32.569 38.5404V29.2196C32.569 28.481 32.3005 27.7852 31.8397 27.2443L32.7333 26.7975L33.4041 27.435C33.8732 27.8809 34.4751 28.1037 35.0772 28.1037C35.6791 28.1037 36.2813 27.8807 36.7503 27.435L37.421 26.7976L39.3496 27.7619C39.784 27.979 40.0539 28.4157 40.0539 28.9014V38.5405C40.0539 38.8594 40.3124 39.1179 40.6313 39.1179C40.9501 39.1179 41.2087 38.8594 41.2087 38.5405V28.9014C41.2086 27.9756 40.6941 27.1431 39.866 26.729ZM35.0771 12.7606C36.1198 12.7606 36.9681 13.4706 36.9681 14.3432C36.9681 14.3798 36.9652 14.416 36.9623 14.4522C36.3817 14.2091 35.7448 14.0744 35.0771 14.0744C34.4094 14.0744 33.7726 14.2091 33.1922 14.4521C33.1892 14.416 33.186 14.3798 33.186 14.3432C33.186 13.4706 34.0344 12.7606 35.0771 12.7606ZM8.5407 26.7949L7.22501 25.4792C7.25219 25.3708 7.26674 25.2581 7.26674 25.143V24.8994C7.62996 25.0186 8.01304 25.0894 8.40944 25.1012C8.45386 25.1026 8.49805 25.1032 8.54231 25.1032C8.98021 25.1032 9.40771 25.0371 9.8145 24.9109V25.1427C9.8145 25.268 9.82736 25.3816 9.85022 25.4854L8.5407 26.7949ZM8.44408 23.9468C6.77396 23.8969 5.41524 22.4258 5.41524 20.6679V19.5889C5.41524 19.4992 5.39438 19.4108 5.35427 19.3306L4.99775 18.6176C4.86718 18.3563 4.79812 18.0639 4.79812 17.7718V17.7374C4.79812 16.3544 5.92334 15.2292 7.30639 15.2292H12.2832V17.6261C12.2832 18.0134 12.1917 18.4014 12.0184 18.7478L11.727 19.3306C11.6869 19.4108 11.666 19.4992 11.666 19.5888V20.823C11.666 21.6755 11.329 22.4722 10.7169 23.0661C10.1052 23.6596 9.29754 23.9727 8.44408 23.9468ZM13.2698 25.9817L11.4457 25.4606C10.9692 25.3245 10.9693 25.2714 10.9693 25.1429L10.9694 24.3474C11.1634 24.2131 11.3483 24.0627 11.5213 23.8948C11.6377 23.7819 11.7461 23.663 11.8477 23.5398C11.9405 23.728 12.0826 23.8923 12.2664 24.0113C12.7292 24.311 13.6026 24.8089 14.8871 25.2674L13.2698 25.9817ZM21.5003 28.2683C19.6217 28.2683 17.9203 27.2182 17.0718 25.5649L17.9123 25.1937C18.5682 24.904 18.992 24.2536 18.992 23.5365V22.1511C19.7678 22.4628 20.6143 22.6347 21.5003 22.6347C22.3862 22.6347 23.2327 22.4628 24.0086 22.1511V23.5365C24.0086 24.2536 24.4324 24.9041 25.0883 25.1937L25.9286 25.5649C25.0807 27.22 23.3859 28.2683 21.5003 28.2683ZM26.507 24.5579L25.5548 24.1373C25.317 24.0323 25.1633 23.7964 25.1633 23.5364V21.5514C27.0188 20.3475 28.249 18.2578 28.249 15.886V14.8034C28.249 14.0997 27.9498 13.4359 27.4282 12.9823C26.2681 11.9734 23.642 10.2126 19.0893 9.75734C18.7728 9.72562 18.489 9.95704 18.4573 10.2744C18.4256 10.5918 18.6571 10.8747 18.9744 10.9064C23.209 11.3298 25.6138 12.9348 26.6704 13.8537C26.9398 14.0879 27.0942 14.4341 27.0942 14.8034V15.886C27.0942 18.9704 24.5848 21.4798 21.5004 21.4798C18.4159 21.4798 15.9065 18.9704 15.9065 15.886V15.403C15.9065 15.1811 16.0295 14.9779 16.2356 14.8592C16.9574 14.4436 17.9095 13.6736 18.3454 12.3658C18.4463 12.0634 18.2828 11.7363 17.9802 11.6355C17.6778 11.5346 17.3507 11.6981 17.2498 12.0007C16.9287 12.9642 16.2076 13.5428 15.6593 13.8585C15.0995 14.1808 14.7517 14.7727 14.7517 15.4031V15.8861C14.7517 18.2579 15.9817 20.3476 17.8373 21.5514V23.5365C17.8373 23.7965 17.6837 24.0323 17.4458 24.1374L16.4936 24.558C14.6339 24.0604 13.4424 23.397 12.894 23.042C12.8831 23.035 12.8769 23.0269 12.88 23.0086C13.0814 21.8181 13.5989 18.3842 14.0536 12.2258C14.2212 9.95357 15.0223 8.05049 16.37 6.72249C17.6877 5.42428 19.4616 4.73804 21.5003 4.73804C23.5389 4.73804 25.3129 5.42428 26.6305 6.72249C27.9783 8.05049 28.7793 9.9535 28.9471 12.2257C29.4017 18.3839 29.9192 21.818 30.1207 23.0085C30.1237 23.0269 30.1176 23.035 30.1066 23.042C29.5574 23.3975 28.3659 24.0605 26.507 24.5579ZM32.6483 25.5244C32.6483 25.5396 32.6399 25.5532 32.6264 25.56L30.8174 26.4645C30.7959 26.4544 30.7753 26.4431 30.7536 26.4335L28.1136 25.2675C29.3975 24.8092 30.2707 24.3115 30.7342 24.0114C31.1323 23.7536 31.3385 23.2845 31.2593 22.816C31.255 22.7904 31.2503 22.7623 31.2457 22.7346C31.5704 23.3875 32.0559 23.9415 32.6483 24.3493V25.5244ZM35.9545 26.598C35.4625 27.0658 34.6916 27.0657 34.1994 26.598L33.6628 26.088C33.7533 25.9184 33.803 25.7259 33.803 25.5244V24.91C34.2063 25.0351 34.634 25.1032 35.077 25.1032C35.5199 25.1032 35.9477 25.0351 36.3509 24.91L36.3508 25.5243C36.3508 25.7259 36.4005 25.9184 36.4911 26.0881L35.9545 26.598ZM35.0771 23.9483C33.4784 23.9483 32.1431 22.7512 31.9712 21.1637C31.962 21.0786 31.9341 20.9967 31.8893 20.9237C31.5263 20.3327 31.3346 19.6577 31.3346 18.9716C31.3346 16.9081 33.0134 15.2292 35.0771 15.2292C37.1407 15.2292 38.8196 16.9081 38.8196 18.9717C38.8196 19.3694 38.7547 19.7635 38.6297 20.1396C36.9902 18.474 34.1061 17.8213 33.9671 17.7906C33.7963 17.753 33.6176 17.7949 33.4812 17.9044C33.3448 18.014 33.2654 18.1796 33.2654 18.3545C33.2654 18.3582 33.2391 18.7588 32.8175 19.1804C32.592 19.4059 32.592 19.7715 32.8175 19.997C33.043 20.2224 33.4086 20.2224 33.634 19.997C33.9587 19.6722 34.1495 19.3427 34.2614 19.0643C35.233 19.353 37.2494 20.0819 38.1544 21.3613C37.8976 22.8493 36.6085 23.9483 35.0771 23.9483Z" fill="#C0A88C"></path><path d="M39.866 26.729L37.5277 25.5601C37.5142 25.5533 37.5057 25.5396 37.5057 25.5245L37.5059 24.3493C38.4657 23.6884 39.1451 22.6436 39.3151 21.4173C39.7469 20.6713 39.9743 19.8286 39.9743 18.9717C39.9743 17.3739 39.205 15.9526 38.0175 15.0582C38.087 14.8264 38.123 14.5873 38.123 14.3433C38.123 12.8339 36.7566 11.6059 35.0771 11.6059C33.3977 11.6059 32.0313 12.8339 32.0313 14.3433C32.0313 14.5876 32.0669 14.8268 32.1364 15.0584C31.4284 15.5918 30.8701 16.313 30.534 17.1467C30.3909 15.7403 30.2418 14.0776 30.0989 12.1408C29.9103 9.58535 28.9912 7.42729 27.4412 5.90005C25.9029 4.38436 23.8486 3.58325 21.5003 3.58325C19.152 3.58325 17.0976 4.38436 15.5595 5.89998C14.0095 7.42729 13.0905 9.58535 12.9018 12.1407C12.8517 12.8192 12.8009 13.4623 12.7499 14.0744H7.30639C5.2866 14.0744 3.64334 15.7176 3.64334 17.7374V17.7718C3.64334 18.2422 3.75451 18.7133 3.96491 19.134L4.26046 19.7252V20.6679C4.26046 22.1619 4.99667 23.5024 6.1118 24.3091V25.143C6.1118 25.25 6.03998 25.3451 5.9372 25.3745L3.5535 26.0556C2.51635 26.3519 1.79199 27.3122 1.79199 28.3908V38.5406C1.79199 38.8594 2.05051 39.1179 2.36938 39.1179C2.68826 39.1179 2.94677 38.8594 2.94677 38.5406V28.3908C2.94677 27.825 3.32678 27.3213 3.87076 27.1658L6.25453 26.4848C6.34053 26.4602 6.42221 26.4269 6.49996 26.3873L7.96323 27.8506V38.5406C7.96323 38.8594 8.22175 39.1179 8.54062 39.1179C8.85949 39.1179 9.11801 38.8594 9.11801 38.5406V27.8506L10.5915 26.3771C10.7884 26.4737 10.9847 26.5299 11.1285 26.571L11.7138 26.7382C10.9206 27.3022 10.4318 28.2221 10.4318 29.2196V38.5404C10.4318 38.8593 10.6903 39.1178 11.0092 39.1178C11.328 39.1178 11.5866 38.8593 11.5866 38.5404V29.2196C11.5866 28.4711 12.029 27.7921 12.7137 27.4897L16.0148 26.0317C17.0493 28.1033 19.1632 29.423 21.5004 29.423C23.8463 29.423 25.9531 28.1062 26.9869 26.0322L30.287 27.4897C30.9717 27.7921 31.4142 28.4711 31.4142 29.2196V38.5404C31.4142 38.8593 31.6727 39.1178 31.9916 39.1178C32.3104 39.1178 32.569 38.8593 32.569 38.5404V29.2196C32.569 28.481 32.3005 27.7852 31.8397 27.2443L32.7333 26.7975L33.4041 27.435C33.8732 27.8809 34.4751 28.1037 35.0772 28.1037C35.6791 28.1037 36.2813 27.8807 36.7503 27.435L37.421 26.7976L39.3496 27.7619C39.784 27.979 40.0539 28.4157 40.0539 28.9014V38.5405C40.0539 38.8594 40.3124 39.1179 40.6313 39.1179C40.9501 39.1179 41.2087 38.8594 41.2087 38.5405V28.9014C41.2086 27.9756 40.6941 27.1431 39.866 26.729ZM35.0771 12.7606C36.1198 12.7606 36.9681 13.4706 36.9681 14.3432C36.9681 14.3798 36.9652 14.416 36.9623 14.4522C36.3817 14.2091 35.7448 14.0744 35.0771 14.0744C34.4094 14.0744 33.7726 14.2091 33.1922 14.4521C33.1892 14.416 33.186 14.3798 33.186 14.3432C33.186 13.4706 34.0344 12.7606 35.0771 12.7606ZM8.5407 26.7949L7.22501 25.4792C7.25219 25.3708 7.26674 25.2581 7.26674 25.143V24.8994C7.62996 25.0186 8.01304 25.0894 8.40944 25.1012C8.45386 25.1026 8.49805 25.1032 8.54231 25.1032C8.98021 25.1032 9.40771 25.0371 9.8145 24.9109V25.1427C9.8145 25.268 9.82736 25.3816 9.85022 25.4854L8.5407 26.7949ZM8.44408 23.9468C6.77396 23.8969 5.41524 22.4258 5.41524 20.6679V19.5889C5.41524 19.4992 5.39438 19.4108 5.35427 19.3306L4.99775 18.6176C4.86718 18.3563 4.79812 18.0639 4.79812 17.7718V17.7374C4.79812 16.3544 5.92334 15.2292 7.30639 15.2292H12.2832V17.6261C12.2832 18.0134 12.1917 18.4014 12.0184 18.7478L11.727 19.3306C11.6869 19.4108 11.666 19.4992 11.666 19.5888V20.823C11.666 21.6755 11.329 22.4722 10.7169 23.0661C10.1052 23.6596 9.29754 23.9727 8.44408 23.9468ZM13.2698 25.9817L11.4457 25.4606C10.9692 25.3245 10.9693 25.2714 10.9693 25.1429L10.9694 24.3474C11.1634 24.2131 11.3483 24.0627 11.5213 23.8948C11.6377 23.7819 11.7461 23.663 11.8477 23.5398C11.9405 23.728 12.0826 23.8923 12.2664 24.0113C12.7292 24.311 13.6026 24.8089 14.8871 25.2674L13.2698 25.9817ZM21.5003 28.2683C19.6217 28.2683 17.9203 27.2182 17.0718 25.5649L17.9123 25.1937C18.5682 24.904 18.992 24.2536 18.992 23.5365V22.1511C19.7678 22.4628 20.6143 22.6347 21.5003 22.6347C22.3862 22.6347 23.2327 22.4628 24.0086 22.1511V23.5365C24.0086 24.2536 24.4324 24.9041 25.0883 25.1937L25.9286 25.5649C25.0807 27.22 23.3859 28.2683 21.5003 28.2683ZM26.507 24.5579L25.5548 24.1373C25.317 24.0323 25.1633 23.7964 25.1633 23.5364V21.5514C27.0188 20.3475 28.249 18.2578 28.249 15.886V14.8034C28.249 14.0997 27.9498 13.4359 27.4282 12.9823C26.2681 11.9734 23.642 10.2126 19.0893 9.75734C18.7728 9.72562 18.489 9.95704 18.4573 10.2744C18.4256 10.5918 18.6571 10.8747 18.9744 10.9064C23.209 11.3298 25.6138 12.9348 26.6704 13.8537C26.9398 14.0879 27.0942 14.4341 27.0942 14.8034V15.886C27.0942 18.9704 24.5848 21.4798 21.5004 21.4798C18.4159 21.4798 15.9065 18.9704 15.9065 15.886V15.403C15.9065 15.1811 16.0295 14.9779 16.2356 14.8592C16.9574 14.4436 17.9095 13.6736 18.3454 12.3658C18.4463 12.0634 18.2828 11.7363 17.9802 11.6355C17.6778 11.5346 17.3507 11.6981 17.2498 12.0007C16.9287 12.9642 16.2076 13.5428 15.6593 13.8585C15.0995 14.1808 14.7517 14.7727 14.7517 15.4031V15.8861C14.7517 18.2579 15.9817 20.3476 17.8373 21.5514V23.5365C17.8373 23.7965 17.6837 24.0323 17.4458 24.1374L16.4936 24.558C14.6339 24.0604 13.4424 23.397 12.894 23.042C12.8831 23.035 12.8769 23.0269 12.88 23.0086C13.0814 21.8181 13.5989 18.3842 14.0536 12.2258C14.2212 9.95357 15.0223 8.05049 16.37 6.72249C17.6877 5.42428 19.4616 4.73804 21.5003 4.73804C23.5389 4.73804 25.3129 5.42428 26.6305 6.72249C27.9783 8.05049 28.7793 9.9535 28.9471 12.2257C29.4017 18.3839 29.9192 21.818 30.1207 23.0085C30.1237 23.0269 30.1176 23.035 30.1066 23.042C29.5574 23.3975 28.3659 24.0605 26.507 24.5579ZM32.6483 25.5244C32.6483 25.5396 32.6399 25.5532 32.6264 25.56L30.8174 26.4645C30.7959 26.4544 30.7753 26.4431 30.7536 26.4335L28.1136 25.2675C29.3975 24.8092 30.2707 24.3115 30.7342 24.0114C31.1323 23.7536 31.3385 23.2845 31.2593 22.816C31.255 22.7904 31.2503 22.7623 31.2457 22.7346C31.5704 23.3875 32.0559 23.9415 32.6483 24.3493V25.5244ZM35.9545 26.598C35.4625 27.0658 34.6916 27.0657 34.1994 26.598L33.6628 26.088C33.7533 25.9184 33.803 25.7259 33.803 25.5244V24.91C34.2063 25.0351 34.634 25.1032 35.077 25.1032C35.5199 25.1032 35.9477 25.0351 36.3509 24.91L36.3508 25.5243C36.3508 25.7259 36.4005 25.9184 36.4911 26.0881L35.9545 26.598ZM35.0771 23.9483C33.4784 23.9483 32.1431 22.7512 31.9712 21.1637C31.962 21.0786 31.9341 20.9967 31.8893 20.9237C31.5263 20.3327 31.3346 19.6577 31.3346 18.9716C31.3346 16.9081 33.0134 15.2292 35.0771 15.2292C37.1407 15.2292 38.8196 16.9081 38.8196 18.9717C38.8196 19.3694 38.7547 19.7635 38.6297 20.1396C36.9902 18.474 34.1061 17.8213 33.9671 17.7906C33.7963 17.753 33.6176 17.7949 33.4812 17.9044C33.3448 18.014 33.2654 18.1796 33.2654 18.3545C33.2654 18.3582 33.2391 18.7588 32.8175 19.1804C32.592 19.4059 32.592 19.7715 32.8175 19.997C33.043 20.2224 33.4086 20.2224 33.634 19.997C33.9587 19.6722 34.1495 19.3427 34.2614 19.0643C35.233 19.353 37.2494 20.0819 38.1544 21.3613C37.8976 22.8493 36.6085 23.9483 35.0771 23.9483Z" stroke="#C0A88C" stroke-width="0.2" mask="url(#path-5-outside-1_3331_500)"></path><path d="M38.1633 29.6482C37.8445 29.6482 37.5859 29.9067 37.5859 30.2256V38.5404C37.5859 38.8593 37.8445 39.1178 38.1633 39.1178C38.4822 39.1178 38.7407 38.8593 38.7407 38.5404V30.2256C38.7407 29.9067 38.4822 29.6482 38.1633 29.6482Z" fill="#C0A88C"></path></svg>