<svg xmlns="http://www.w3.org/2000/svg" width="18" height="19" viewBox="0 0 18 19" fill="none"><g clip-path="url(#clip0_3307_1711)"><path d="M5.79727 1.52286C5.52656 0.868957 4.81289 0.52091 4.13086 0.707238L1.03711 1.55099C0.425391 1.71974 0 2.27521 0 2.90802C0 11.6057 7.05234 18.658 15.75 18.658C16.3828 18.658 16.9383 18.2326 17.107 17.6209L17.9508 14.5272C18.1371 13.8451 17.7891 13.1315 17.1352 12.8608L13.7602 11.4545C13.1871 11.2154 12.5227 11.3807 12.1324 11.8623L10.7121 13.5955C8.23711 12.4248 6.2332 10.4209 5.0625 7.94591L6.7957 6.52911C7.27734 6.13536 7.44258 5.47443 7.20352 4.90138L5.79727 1.52638V1.52286Z" fill="white"></path></g><defs><clipPath id="clip0_3307_1711"><rect width="18" height="18" fill="white" transform="translate(0 0.658203)"></rect></clipPath></defs></svg>