<svg xmlns="http://www.w3.org/2000/svg" width="48" height="49" viewBox="0 0 48 49" fill="none"><path d="M17.8249 18.6181C17.8833 18.6768 17.9527 18.7234 18.0292 18.7551C18.1056 18.7869 18.1876 18.8033 18.2704 18.8033C18.3532 18.8033 18.4352 18.7869 18.5116 18.7551C18.5881 18.7234 18.6575 18.6768 18.7159 18.6181L20.8106 16.5234C20.9286 16.4053 20.9947 16.2451 20.9946 16.0781C20.9944 15.9112 20.928 15.7511 20.8098 15.6332C20.6917 15.5152 20.5315 15.4491 20.3646 15.4492C20.1976 15.4494 20.0376 15.5158 19.9196 15.634L18.2712 17.2856L17.6678 16.6806C17.5498 16.5624 17.3898 16.4959 17.2228 16.4958C17.0559 16.4956 16.8957 16.5618 16.7775 16.6798C16.6594 16.7977 16.5929 16.9578 16.5928 17.1247C16.5926 17.2917 16.6588 17.4518 16.6588 17.6187L17.8249 18.6181Z" fill="#C0A88C"></path><path d="M23.5085 17.7542H30.7779C30.9446 17.7542 31.1045 17.688 31.2224 17.5701C31.3402 17.4522 31.4065 17.2924 31.4065 17.1256C31.4065 16.9589 31.3402 16.7991 31.2224 16.6812C31.1045 16.5633 30.9446 16.4971 30.7779 16.4971H23.5085C23.3417 16.4971 23.1819 16.5633 23.064 16.6812C22.9461 16.7991 22.8799 16.9589 22.8799 17.1256C22.8799 17.2924 22.9461 17.4522 23.064 17.5701C23.1819 17.688 23.3417 17.7542 23.5085 17.7542Z" fill="#C0A88C"></path><path d="M17.8249 23.333C17.8833 23.3916 17.9527 23.4382 18.0292 23.47C18.1056 23.5018 18.1876 23.5181 18.2704 23.5181C18.3532 23.5181 18.4352 23.5018 18.5116 23.47C18.5881 23.4382 18.6575 23.3916 18.7159 23.333L20.8106 21.2383C20.9286 21.1201 20.9947 20.9599 20.9946 20.793C20.9944 20.626 20.928 20.466 20.8098 20.348C20.6917 20.2301 20.5315 20.1639 20.3646 20.1641C20.1976 20.1642 20.0376 20.2307 19.9196 20.3488L18.2712 22.0004L17.6678 21.3954C17.6094 21.3369 17.54 21.2905 17.4637 21.2588C17.3873 21.2271 17.3055 21.2107 17.2228 21.2106C17.1401 21.2106 17.0583 21.2268 16.9819 21.2583C16.9055 21.2899 16.836 21.3362 16.7775 21.3946C16.719 21.453 16.6726 21.5224 16.6409 21.5987C16.6092 21.6751 16.5928 21.7569 16.5928 21.8396C16.5927 21.9222 16.6089 22.0041 16.6405 22.0805C16.672 22.1569 16.7183 22.2263 16.7768 22.2848L17.8249 23.333Z" fill="#C0A88C"></path><path d="M23.5085 22.4681H30.7779C30.9446 22.4681 31.1045 22.4019 31.2224 22.284C31.3402 22.1661 31.4065 22.0062 31.4065 21.8395C31.4065 21.6728 31.3402 21.5129 31.2224 21.395C31.1045 21.2772 30.9446 21.2109 30.7779 21.2109H23.5085C23.3417 21.2109 23.1819 21.2772 23.064 21.395C22.9461 21.5129 22.8799 21.6728 22.8799 21.8395C22.8799 22.0062 22.9461 22.1661 23.064 22.284C23.1819 22.4019 23.3417 22.4681 23.5085 22.4681Z" fill="#C0A88C"></path><path d="M17.8249 28.0468C17.8833 28.1055 17.9527 28.1521 18.0292 28.1838C18.1056 28.2156 18.1876 28.232 18.2704 28.232C18.3532 28.232 18.4352 28.2156 18.5116 28.1838C18.5881 28.1521 18.6575 28.1055 18.7159 28.0468L20.8106 25.9521C20.9286 25.834 20.9947 25.6738 20.9946 25.5068C20.9944 25.3399 20.928 25.1799 20.8098 25.0619C20.6917 24.944 20.5315 24.8778 20.3646 24.8779C20.1976 24.8781 20.0376 24.9445 19.9196 25.0627L18.2712 26.7143L17.6678 26.1093C17.5498 25.9911 17.3898 25.9246 17.2228 25.9245C17.0559 25.9244 16.8957 25.9905 16.7775 26.1085C16.6594 26.2264 16.5929 26.3865 16.5928 26.5534C16.5926 26.7204 16.6588 26.8805 16.7768 26.9987L17.8249 28.0468Z" fill="#C0A88C"></path><path d="M23.5085 27.1829H30.7779C30.9446 27.1829 31.1045 27.1167 31.2224 26.9988C31.3402 26.8809 31.4065 26.7211 31.4065 26.5544C31.4065 26.3876 31.3402 26.2278 31.2224 26.1099C31.1045 25.992 30.9446 25.9258 30.7779 25.9258H23.5085C23.3417 25.9258 23.1819 25.992 23.064 26.1099C22.9461 26.2278 22.8799 26.3876 22.8799 26.5544C22.8799 26.7211 22.9461 26.8809 23.064 26.9988C23.1819 27.1167 23.3417 27.1829 23.5085 27.1829Z" fill="#C0A88C"></path><path d="M42.8575 37.9736H41.9146V18.6058C41.9134 17.9081 41.6357 17.2393 41.1423 16.7459C40.649 16.2526 39.9802 15.9749 39.2825 15.9736H35.6289V11.8879C35.629 11.8053 35.6128 11.7236 35.5812 11.6473C35.5497 11.571 35.5034 11.5016 35.4451 11.4432L29.1594 5.15749C29.1009 5.09914 29.0316 5.05287 28.9553 5.02132C28.879 4.98977 28.7972 4.97357 28.7146 4.97363H14.3596C13.8327 4.97446 13.3276 5.18417 12.9549 5.55678C12.5823 5.9294 12.3726 6.43453 12.3718 6.96149V15.9736H8.71822C8.02052 15.9749 7.35174 16.2526 6.85839 16.7459C6.36504 17.2393 6.08732 17.9081 6.08608 18.6058V37.9736H5.14322C4.97651 37.9736 4.81663 38.0399 4.69875 38.1577C4.58087 38.2756 4.51465 38.4355 4.51465 38.6022V40.8148C4.5466 41.6743 4.91769 42.4862 5.54673 43.0728C6.17577 43.6595 7.01155 43.9731 7.87122 43.9451H40.1295C40.9892 43.9731 41.825 43.6595 42.454 43.0728C43.083 42.4862 43.4541 41.6743 43.4861 40.8148V38.6022C43.4861 38.4355 43.4198 38.2756 43.302 38.1577C43.1841 38.0399 43.0242 37.9736 42.8575 37.9736ZM39.2825 17.2308C39.6469 17.2316 39.9962 17.3767 40.2539 17.6344C40.5115 17.8921 40.6567 18.2414 40.6575 18.6058V37.9736H39.2432V19.2736C39.2432 19.1069 39.177 18.947 39.0591 18.8292C38.9412 18.7113 38.7814 18.6451 38.6146 18.6451H35.6289V17.2308H39.2825ZM28.2825 37.9736C28.1693 37.9735 28.0581 38.0039 27.9607 38.0617C27.8634 38.1195 27.7834 38.2026 27.7294 38.3021L27.0505 39.5451H20.9455L20.2666 38.3021C20.2126 38.2026 20.1326 38.1195 20.0353 38.0617C19.9379 38.0039 19.8267 37.9735 19.7135 37.9736H10.0146V19.9022H12.3718V32.3165C12.3726 32.8436 12.5823 33.3489 12.9548 33.7218C13.3274 34.0946 13.8325 34.3047 14.3596 34.3059H33.6411C34.1682 34.3047 34.6733 34.0946 35.0459 33.7218C35.4185 33.3489 35.6281 32.8436 35.6289 32.3165V19.9022H37.9861V37.9736H28.2825ZM29.3432 7.12178L33.4808 11.2593H29.3432V7.12178ZM13.6289 6.96463C13.6285 6.86841 13.6471 6.77305 13.6837 6.68404C13.7202 6.59502 13.7739 6.51409 13.8418 6.44591C13.9097 6.37772 13.9904 6.32362 14.0793 6.2867C14.1681 6.24978 14.2634 6.23078 14.3596 6.23078H28.0861V11.8879C28.0861 12.0546 28.1523 12.2145 28.2702 12.3324C28.3881 12.4503 28.5479 12.5165 28.7146 12.5165H34.3718V32.3165C34.3718 32.5103 34.2948 32.6961 34.1578 32.8332C34.0207 32.9702 33.8349 33.0472 33.6411 33.0472H14.3596C14.1659 33.0472 13.98 32.9702 13.843 32.8332C13.7059 32.6961 13.6289 32.5103 13.6289 32.3165V6.96463ZM7.34322 18.6089C7.34322 18.244 7.48798 17.8939 7.74576 17.6355C8.00353 17.3772 8.35326 17.2316 8.71822 17.2308H12.3718V18.6451H9.38608C9.30353 18.6451 9.22179 18.6613 9.14553 18.6929C9.06927 18.7245 8.99998 18.7708 8.94161 18.8292C8.88324 18.8875 8.83694 18.9568 8.80535 19.0331C8.77376 19.1094 8.75751 19.1911 8.75751 19.2736V37.9736H7.34322V18.6089ZM42.2289 40.8148C42.1965 41.3407 41.9578 41.8325 41.5646 42.1833C41.1714 42.5341 40.6557 42.7154 40.1295 42.6879H7.87122C7.34504 42.7154 6.82928 42.5341 6.43612 42.1833C6.04297 41.8325 5.80421 41.3407 5.77179 40.8148V39.2308H19.3411L20.0199 40.4738C20.0739 40.573 20.1536 40.6559 20.2506 40.7137C20.3477 40.7715 20.4585 40.8021 20.5715 40.8022H27.4292C27.5422 40.8021 27.653 40.8021 27.7501 40.7137C27.8472 40.6559 27.9268 40.573 27.9808 40.4738L28.6596 39.2308H42.2289V40.8148Z" fill="#C0A88C"></path></svg>
