<svg xmlns="http://www.w3.org/2000/svg" width="49" height="49" viewBox="0 0 49 49" fill="none"><g clip-path="url(#clip0_3304_1051)"><path d="M46.6555 26.4087L43.9052 9.64892C43.8604 9.3753 43.6862 9.14017 43.4376 9.01745C43.1891 8.89482 42.8966 8.89955 42.6521 9.03009L35.8319 12.6761C35.4451 12.8828 35.2761 13.3476 35.4396 13.7546L35.883 14.8574C34.6237 15.405 33.1842 15.4501 31.8903 14.9744C29.525 14.1047 26.9188 14.2433 24.6671 15.3436C22.4154 14.2434 19.8091 14.1048 17.4438 14.9744C16.1499 15.45 14.7104 15.4049 13.4511 14.8573L13.8944 13.7545C14.058 13.3476 13.889 12.8827 13.5022 12.676L6.68196 9.03017C6.43756 8.89946 6.14494 8.89482 5.89641 9.01754C5.6478 9.14026 5.47369 9.37538 5.42883 9.64901L2.67841 26.4087C2.61129 26.8177 2.84564 27.2162 3.23554 27.3564L6.99082 28.7075C7.08681 28.7419 7.18495 28.7583 7.28163 28.7583C7.62298 28.7583 7.94464 28.5536 8.07904 28.2194L8.51457 27.136L10.5099 28.7163C10.56 29.3762 10.8359 30.022 11.3395 30.5256C11.8922 31.0783 12.616 31.3572 13.3418 31.3636C13.3482 32.0894 13.6272 32.8133 14.1798 33.3659C14.7325 33.9186 15.4563 34.1975 16.1821 34.2039C16.1885 34.9297 16.4675 35.6537 17.0202 36.2063C17.5793 36.7654 18.3136 37.0449 19.048 37.0449C19.2098 37.0449 19.3714 37.0306 19.5314 37.0034C19.6235 37.5788 19.8902 38.1315 20.3329 38.5743C20.892 39.1334 21.6264 39.4128 22.3608 39.4128C22.9098 39.4128 23.4589 39.2565 23.9347 38.944L24.1416 39.1508C24.7007 39.7099 25.435 39.9894 26.1694 39.9894C26.9038 39.9894 27.6382 39.7099 28.1973 39.1508C28.5465 38.8016 28.7866 38.384 28.9177 37.9406C29.2618 38.0835 29.634 38.1584 30.0177 38.1584C30.7837 38.1584 31.5039 37.86 32.0455 37.3185C32.4959 36.868 32.7646 36.3037 32.8522 35.7174C32.9982 35.74 33.1456 35.7518 33.2931 35.7518C34.0275 35.7518 34.7618 35.4724 35.321 34.9132C35.8566 34.3777 36.1537 33.6672 36.1603 32.9109C36.8857 32.904 37.609 32.6252 38.1614 32.073C39.0111 31.2232 39.2143 29.9688 38.7725 28.9245L41.0509 27.7121L41.255 28.2196C41.3894 28.5539 41.7111 28.7585 42.0524 28.7585C42.149 28.7585 42.2473 28.7422 42.3432 28.7076L46.0985 27.3566C46.4883 27.2163 46.7227 26.8177 46.6555 26.4087ZM6.79334 26.8098L4.49031 25.9813L6.93041 11.1119L12.0122 13.8285L6.79334 26.8098ZM14.1796 29.3105C13.7316 29.7582 13.0029 29.7581 12.555 29.3102C12.107 28.8622 12.107 28.1333 12.555 27.6853L13.4925 26.7479C13.7095 26.5309 13.9981 26.4114 14.3049 26.4114C14.6118 26.4114 14.9004 26.5309 15.1174 26.7479C15.5654 27.1959 15.5654 27.9248 15.1174 28.3728L14.1799 29.3103C14.1798 29.3103 14.1797 29.3104 14.1796 29.3105ZM17.0202 32.1505C16.5722 32.5987 15.8432 32.5987 15.3952 32.1505C14.9474 31.7027 14.9473 30.9742 15.3947 30.5262C15.3949 30.5261 15.3951 30.5259 15.3953 30.5256L17.5016 28.4193C17.7186 28.2023 18.0072 28.0827 18.3141 28.0827C18.621 28.0827 18.9095 28.2023 19.1265 28.4193C19.5745 28.8673 19.5745 29.5962 19.1265 30.0442L17.0202 32.1505ZM19.8606 34.9909C19.4127 35.4388 18.6836 35.4391 18.2356 34.9909C17.7875 34.5429 17.7875 33.8139 18.2356 33.3659L20.3419 31.2596C20.5659 31.0357 20.8601 30.9236 21.1544 30.9236C21.4486 30.9236 21.7429 31.0357 21.9669 31.2596C22.184 31.4766 22.3035 31.7652 22.3035 32.0721C22.3035 32.379 22.184 32.6675 21.967 32.8845L19.8606 34.9909ZM23.9155 36.6166L23.1732 37.3588C22.7252 37.8069 21.9962 37.8067 21.5482 37.3588C21.1002 36.9109 21.1002 36.1821 21.5481 35.734L22.2904 34.9917C22.5143 34.7678 22.8086 34.6557 23.1028 34.6557C23.3971 34.6557 23.6913 34.7678 23.9154 34.9917C24.3634 35.4396 24.3634 36.1686 23.9155 36.6166ZM26.9819 37.9353C26.534 38.3833 25.805 38.3833 25.3569 37.9353L25.1906 37.769C25.6938 37.2351 25.9706 36.541 25.9706 35.8041C25.9706 35.6141 25.9522 35.4272 25.9163 35.2449L26.9818 36.3102C27.4299 36.7583 27.4299 37.4873 26.9819 37.9353ZM36.9459 30.8574C36.4979 31.3054 35.7689 31.3055 35.321 30.8574L29.766 25.3024C29.4303 24.967 28.8862 24.9669 28.5506 25.3024C28.215 25.638 28.215 26.1821 28.5506 26.5178L34.1056 32.0728C34.3226 32.2898 34.4422 32.5784 34.4422 32.8853C34.4422 33.1922 34.3226 33.4808 34.1055 33.6977C33.6576 34.1457 32.9285 34.1458 32.4806 33.6977L28.4601 29.6773C28.1245 29.3418 27.5803 29.3418 27.2447 29.6773C26.9091 30.0128 26.9091 30.557 27.2447 30.8927L30.8301 34.4781C31.0472 34.6951 31.1668 34.9837 31.1668 35.2906C31.1668 35.5975 31.0472 35.8861 30.8301 36.103C30.6131 36.32 30.3246 36.4397 30.0177 36.4397C29.7108 36.4397 29.4222 36.32 29.2052 36.103L26.6222 33.52C26.2866 33.1845 25.7425 33.1845 25.4068 33.52C25.3105 33.6164 25.2428 33.7301 25.2018 33.851C25.1784 33.8259 25.1551 33.8008 25.1307 33.7764C24.7716 33.4173 24.3338 33.1659 23.8564 33.0368C23.9652 32.7313 24.022 32.4061 24.022 32.0722C24.022 31.3062 23.7237 30.586 23.1821 30.0443C22.6295 29.4916 21.9056 29.2127 21.1797 29.2062C21.1733 28.4804 20.8943 27.7566 20.3418 27.204C19.8001 26.6623 19.0799 26.364 18.3139 26.364C17.8601 26.364 17.4227 26.4696 17.0287 26.6675C16.8934 26.2523 16.6618 25.862 16.3325 25.5326C15.7909 24.9909 15.0707 24.6927 14.3047 24.6927C13.5386 24.6927 12.8185 24.991 12.2769 25.5326L11.3394 26.47C11.2053 26.6042 11.0876 26.7487 10.9856 26.9007L9.18308 25.4731L12.81 16.4516C14.462 17.1564 16.3436 17.2101 18.0367 16.5877C19.5472 16.0324 21.1784 15.9828 22.696 16.42L20.5101 17.6291C19.7155 18.0686 19.1406 18.8277 18.9329 19.7117C18.7252 20.5958 18.9019 21.5315 19.4176 22.2788C20.2517 23.4877 21.7975 23.9795 23.177 23.475L27.888 21.7514C28.5893 21.4949 29.3835 21.6702 29.9115 22.1982L36.9457 29.2325C37.3939 29.6804 37.3939 30.4095 36.9459 30.8574ZM37.695 27.5508L31.127 20.9829C30.1279 19.9836 28.6246 19.652 27.2976 20.1373L22.5867 21.8609C21.943 22.0964 21.2218 21.8668 20.8325 21.3027C20.5882 20.9489 20.508 20.5235 20.6063 20.1049C20.7047 19.6864 20.966 19.3412 21.3422 19.133L25.0828 17.0638C26.9882 16.0097 29.2532 15.8361 31.297 16.5877C32.99 17.2101 34.8718 17.1563 36.5237 16.4516L40.4059 26.108L37.695 27.5508ZM42.5406 26.8098L37.3217 13.8285L42.4035 11.1119L44.8437 25.9813L42.5406 26.8098Z" fill="#C0A88C"></path></g><defs><clipPath id="clip0_3304_1051"><rect width="44" height="44" fill="white" transform="translate(2.66699 2.45898)"></rect></clipPath></defs></svg>
