<svg xmlns="http://www.w3.org/2000/svg" width="145" height="145" viewBox="0 0 145.156 145" fill="none"><path d="M114.058 31.0625H103.696C103.696 22.4855 100.211 14.7167 94.5738 9.09869C88.9492 3.46762 81.1714 -0.0126953 72.5714 -0.0126953H31.0983C13.9244 0.000339568 0 13.9216 0 31.0625V113.925C0 131.092 13.9244 144.987 31.0983 144.987H114.058C131.231 144.987 145.156 131.079 145.156 113.925V62.1376C145.156 44.9837 131.218 31.0755 114.058 31.0755V31.0625Z" fill="#0077F3"/><path d="M117.725 70.0106C115.741 66.6997 113.053 64.1318 109.647 62.2548C106.267 60.3908 102.443 59.4653 98.2149 59.4653C93.9867 59.4653 90.2152 60.3908 86.7961 62.2548C83.377 64.1318 80.6756 66.6997 78.7051 70.0106C76.7215 73.3084 75.7296 77.1406 75.7296 81.4943C75.7296 85.8479 76.7215 89.5889 78.7051 92.9128C80.6756 96.2498 83.3639 98.8567 86.77 100.721C90.163 102.572 93.9736 103.51 98.2279 103.51C102.482 103.51 106.293 102.572 109.66 100.721C113.066 98.8567 115.754 96.2498 117.738 92.9128C119.708 89.5889 120.7 85.7828 120.7 81.4943C120.7 77.2058 119.708 73.3084 117.738 70.0106H117.725ZM107.82 88.4158C106.828 90.2928 105.497 91.7006 103.8 92.613C102.104 93.5385 100.238 94.0078 98.2019 94.0078C96.166 94.0078 94.2868 93.5255 92.5903 92.613C90.9069 91.6876 89.5497 90.2928 88.5709 88.4158C87.5791 86.5648 87.0962 84.2446 87.0962 81.4812C87.0962 78.7178 87.6052 76.3976 88.6231 74.5728C89.641 72.7348 90.9982 71.3401 92.6947 70.3886C94.3912 69.424 96.2574 68.9417 98.2932 68.9417C100.329 68.9417 102.104 69.3979 103.761 70.3364C105.432 71.2619 106.789 72.6566 107.794 74.5206C108.798 76.3846 109.307 78.7048 109.307 81.4812C109.307 84.2577 108.825 86.5648 107.833 88.4158H107.82ZM59.1691 41.4902V66.1522C57.7728 64.0536 55.8675 62.4243 53.5315 61.2381C51.2086 60.0519 48.4289 59.4523 45.2708 59.4523C41.3036 59.4523 37.767 60.3908 34.622 62.2809C31.4899 64.1709 29.0104 66.7649 27.2095 70.0757C25.3956 73.3866 24.4951 77.1537 24.4951 81.39C24.4951 85.6263 25.3956 89.3282 27.2095 92.6912C29.0104 96.0673 31.4899 98.7003 34.622 100.616C37.767 102.546 41.3166 103.497 45.2708 103.497C48.7682 103.497 51.6523 102.806 53.8839 101.372C56.1024 99.9647 57.8772 98.3353 59.1691 96.4714V102.48H70.2095V41.4902H59.1691ZM57.9555 87.8814C56.9506 89.7714 55.5673 91.2574 53.7925 92.3263C52.0046 93.4082 49.9558 93.9426 47.6459 93.9426C45.3361 93.9426 43.3394 93.4082 41.5385 92.3263C39.7376 91.2444 38.3151 89.7714 37.2972 87.8814C36.2793 85.9913 35.7704 83.8275 35.7704 81.403C35.7704 78.9785 36.2793 76.8278 37.2972 75.0029C38.3151 73.165 39.7376 71.7051 41.5385 70.6493C43.3394 69.5674 45.3752 69.0329 47.6459 69.0329C49.9166 69.0329 52.0046 69.5674 53.7925 70.6493C55.5673 71.7051 56.9506 73.1911 57.9555 75.0681C58.9473 76.919 59.4301 79.0698 59.4301 81.5073C59.4301 83.9448 58.9342 86.0043 57.9555 87.8944V87.8814Z" fill="white"/></svg>